<?xml version="1.0" encoding="UTF-8"?>
<svg id="Lag_1" xmlns="http://www.w3.org/2000/svg" version="1.1" viewBox="0 0 1280 1024">
  <!-- Generator: Adobe Illustrator 30.1.0, SVG Export Plug-In . SVG Version: 2.1.1 Build 136)  -->
  <defs>
    <style>
      .st0 {
        fill: #5a5e27;
      }

      .st1 {
        fill: #ffdbe8;
      }

      .st2 {
        fill: #6d8ec5;
      }

      .st3 {
        fill: #ffd14d;
      }

      .st4 {
        fill: #e1903e;
      }

      .st5 {
        fill: #d3622d;
      }

      .st6 {
        fill: #fbde9c;
      }

      .st7 {
        fill: #ed9bbd;
      }

      .st8 {
        fill: #c1dbe8;
      }

      .st9 {
        fill: #b0041a;
      }

      .st10 {
        fill: #800015;
      }

      .st11 {
        fill: #898e46;
      }
    </style>
  </defs>
  <g>
    <path class="st0" d="M738.7,423.8c7-17.6-.1-37.2-7.9-54.5-7.2-16-15-31.7-20.7-48.2-4-11.4-7-23.6-5.4-35.5s8.5-23.9,19.8-28.8c17.5-7.6,38.7,4.4,47.3,21.1,8.7,16.7,8.2,36.3,7.6,55-.6,17.5-1.2,35-1.9,52.4-.2,5.8-.4,11.8,1.6,17.3s6.7,10.5,12.6,11.1c4.8.5,9.4-1.9,13.5-4.5,17.4-11.2,30.5-27.5,44.8-42.3,14.3-14.8,30.8-28.9,51.1-33.4,9.6-2.1,20.5-1.8,28.3,4.1,7.8,5.8,11,16.3,9.6,25.7-1.3,9.5-6.7,18.1-13.2,25.2-22,23.8-56.2,31.8-86.4,44.5-7.3,3-14.7,6.6-19.5,12.8-7.7,9.9-6.5,24.3-.8,35.5,5.7,11.2,15.1,20,23.7,29.3,14.7,15.7,28,34.7,28.1,56,0,3.1-.3,6.3-1.6,9-1.4,2.9-4,5.2-6.8,7-13.2,8.4-31.5,5.6-44.4-3.4-12.8-8.9-21.1-22.8-27.4-36.9-6.3-14.1-11.1-28.9-19-42.2-.8-1.4-1.8-2.9-3.3-3.7-5.5-3-10.3,5-11.6,11-4.5,19.9-12.6,39.3-26,55-13.4,15.6-32.4,27.2-53.1,29.5-4.5.5-9.3.5-13.1-1.8-3.2-1.9-5.3-5.1-7-8.4-9.8-19-8-43.2,4.5-60.7,13.2-18.3,35.5-27.8,56.6-36.5,5.1-2.1,10.3-4.3,14.1-8.2s5.9-9.9,3.5-14.8c-2.8-5.8-10.3-7.6-16.8-8.6-20.5-3.4-40.9-6.7-61.4-10.1-16-2.6-32.3-5.4-46.5-13.1s-25.9-21.5-26.4-37.4c-.5-15.8,13.6-32,29.7-30.2,6.2.7,11.8,3.7,17.2,6.7,31.4,17.2,62.5,34.8,93.3,53,3.2,1.9,6.8,3.8,10.5,3.1s6.3-5.7,3.5-8.1"/>
    <path class="st0" d="M740.1,424.2c5.6-14.4,2.1-30.3-3.2-44.2s-13.2-29.2-19.4-43.9c-3.2-7.5-6.1-15.2-8.4-23-2.2-7.7-3.7-15.7-3.3-23.7.7-12.7,7.2-25.9,19.2-31.2,11.1-4.9,23.9-1.1,33.2,6s8.9,8.3,11.8,13.5,5.6,13.5,6.8,20.6c2.5,15.2,1.2,30.9.7,46.2s-.6,17-.9,25.5-.3,8.7-.5,13-.4,8,0,11.9c.6,6.8,3,13.4,8.7,17.5s5.8,2.9,9,2.7,7.2-1.7,10.4-3.6c12.7-7.5,23.2-18.3,33.2-29,9.8-10.5,19.4-21.4,30.6-30.4s23.4-16,37.3-18c6.5-1,13.6-.7,19.6,2.3s9.9,8,11.7,14.2c4.1,13.6-3,27.2-12.1,37s-20.4,16.8-32.2,22.5-24.9,10.4-37.5,15.1-12.8,4.8-19,7.6-12.5,6.3-16.8,11.7c-8.2,10.5-6.9,25.4-1.3,36.8,6.5,13.2,18,23,27.6,33.8s17.8,22.4,21.9,36,1.7,6.7,2.1,10.1.6,7.5-.3,11.1c-1.7,6.6-8.7,10.5-14.8,12.2-12.7,3.7-26.8-.4-37.1-8.3-11-8.4-18.3-20.7-24.1-33.1-6.5-14.1-11.2-29.1-19-42.7s-3.3-5.7-6.6-6.4-5,.8-6.7,2.6c-4.5,4.7-5.3,11.5-6.9,17.5-3.9,14.1-9.7,27.6-18.1,39.6-7.9,11.3-18.3,20.8-30.4,27.5-6,3.3-12.4,5.8-19.1,7.4-3.3.8-6.7,1.4-10.2,1.6s-7.3,0-10.5-1.8-4.8-4.7-6.4-7.7c-1.5-2.9-2.8-6-3.7-9.2-1.9-6.4-2.7-13.1-2.4-19.8.7-13.3,6-26.1,15-35.9,9.1-9.9,20.9-16.7,32.9-22.4s12.4-5.5,18.6-8.1,13.1-5.6,16.9-11.6,3.5-12.5-1.4-17.1-11.5-5.2-17.5-6.1c-16.7-2.7-33.4-5.5-50.1-8.2s-30.9-4.5-45.5-10-24.2-12.8-30.7-24.8-4.8-11.6-4.5-17.7,2.6-11.7,6.2-16.3,8.6-8.3,14.3-9.8,13.5.5,19.6,3.5,14.4,7.8,21.5,11.8,14.8,8.2,22.1,12.4c14.6,8.2,29.1,16.6,43.6,25s7.1,4.1,10.6,6.2,6.5,3.7,10.1,3.5,5.2-1.6,6.4-4.1,1.1-5-.8-6.8-3.5.8-2.1,2.1,0,4.4-1.8,5.3c-3.3,1.6-7.4-.9-10.1-2.5-7.4-4.3-14.7-8.6-22.1-12.9-14.6-8.5-29.3-16.8-44.1-25.1-7.5-4.2-14.9-8.3-22.4-12.4s-13.6-8.1-21.2-9.4c-12.4-2.1-24.1,5.8-29.5,16.7s-3.9,11.6-3.2,17.7,3.2,12.3,6.7,17.6c7.8,11.6,19.8,19.1,32.8,23.7s30.9,7.2,46.4,9.7c16.7,2.7,33.5,5.4,50.2,8.2s12.6,2.4,15.1,8-2.6,13.1-7.9,16.4-6.4,3.3-9.7,4.6-6.2,2.6-9.3,3.9c-6.3,2.7-12.6,5.6-18.7,8.9-11.6,6.4-22.6,14.6-30,25.8s-10.7,25.1-9.5,38.5,2.2,13.2,5,19.3c1.4,3.1,3,6.2,5.3,8.7s5.6,4.3,9.1,4.8c3.5.5,7.1.2,10.6-.3s6.8-1.2,10.1-2.2c6.6-1.9,12.9-4.7,18.8-8.2,12.1-7.2,22.3-17.2,30.1-28.8,8.2-12.2,14-26,17.7-40.2.8-3.2,1.3-6.5,2.6-9.5s2.5-5.2,4.8-6.5,4.9.9,6.2,3.1c2,3.3,3.8,6.8,5.5,10.3,6.6,13.9,11.2,28.6,18.5,42.1s15.4,23.6,27.7,30.2c11.5,6.1,26,8,38,2.2s6-3.4,8.2-5.9c2.5-2.8,3.7-6.2,4-9.9.7-7-.7-14.3-2.8-20.9-4.5-13.7-13.1-25.6-22.6-36.3-9.6-10.8-21.3-20.6-27.3-34.1-2.7-6-4-12.8-3.3-19.3s3.9-12.5,9-16.8,12-7.1,18.4-9.7,12.9-5,19.3-7.4c12.7-4.7,25.4-9.5,37.4-16s22.9-14.6,31-25.3,12.6-25.1,6.7-38-7.5-10.5-13.6-13-13.4-2.7-20-1.7c-14,2.1-26.7,9.4-37.6,18-11.4,9-21.1,20-31,30.6s-20.6,21.8-33.4,29.3c-3.2,1.9-7,3.5-10.8,3s-5.8-2.2-7.8-4.5c-5-5.7-5-13.8-4.8-20.9.6-17.2,1.2-34.4,1.8-51.6s1.2-30.3-2.7-44.9-4.5-13.3-8.7-18.8c-3.7-4.9-8.3-9.2-13.5-12.4-10.3-6.3-23.4-8.4-34.4-2.4s-17.8,19.3-18.7,32.1,5.1,32.4,11.2,47.1c3.1,7.5,6.5,15,9.9,22.4s6.9,14.7,9.8,22.2c5.2,13.6,8.9,28.9,3.4,43.1s2.2,2.6,2.9.8h0Z"/>
  </g>
  <g>
    <path class="st10" d="M1032.4,816.4c1.5-20.5-7.3-40.3-17.5-58.3-10.2-18-22.2-35.5-27.8-55.4-3.2-11.3-4.1-23.9,1.6-34.2,4.7-8.6,13.9-14.8,24-16.3,10.1-1.5,20.8,1.9,28,8.8,5.6,5.4,9,12.5,11.8,19.7,12.1,31.4,14.4,65.5,14.2,99,0,5.7-.1,11.6,1.9,17,2,5.4,6.5,10.3,12.5,11.2,5.4.8,10.7-1.9,15.3-4.7,27.6-17.3,47.1-45.6,76.9-59.2,15.6-7.1,35.8-9.2,48.9,1.5,14.6,11.9,13.6,35.3,2,49.9-11.6,14.6-30.7,22-49.5,26.1-18.8,4.1-38.2,5.5-56.4,11.5-4.5,1.5-9.1,3.3-12.3,6.7-7,7.3-5,19.4.9,27.5,5.9,8.2,14.8,13.8,22.3,20.7,12.4,11.3,21,26.2,25.3,42,2.5,9.4,3.4,20-2.3,28-8.1,11.5-26.8,12.1-39,4.5-12.2-7.6-19-20.8-23.7-33.9-4.8-13.1-8.2-26.8-16.1-38.5-1.7-2.5-4.1-5.2-7.3-5.2-3.4,0-5.8,3.1-7.5,5.9-9.3,15.3-15.6,32.1-25.2,47.3-9.6,15.2-23.4,29.1-41.3,33.5-18,4.4-40.1-4.1-45.1-21.1-3.4-11.6,1.5-24.2,9.7-33.3,8.2-9.1,19.2-15.5,30-21.6,12.6-7.1,25.1-14.3,37.7-21.4,3.2-1.8,6.8-4.3,6.8-7.9,0-4.8-6.4-6.8-11.3-7.4-28.1-3.3-57-3.5-83.5-12.8-26.5-9.3-50.9-31-52-57.9-.1-3.5.1-7,1.5-10.2,2.7-6.5,9.3-10.9,15.9-13.9,12.6-5.8,27.6-8.3,40.8-3.8,12.9,4.3,22.6,14.4,32.4,23.5,14.3,13.1,30.2,24.6,47.2,34.3,2.2,1.3,4.8,2.6,7.3,2s4.2-4.1,2.2-5.6"/>
    <path class="st10" d="M1033.9,816.4c1.1-15-3.3-29.7-9.5-43.2-6.3-13.7-14.6-26.4-22-39.6-7.1-12.7-14-26.4-15.9-40.9s-.6-14.4,2.3-20.9,7-10.6,12.4-13.9c11.3-6.7,26.4-5.8,36.6,2.6s9,10.7,11.7,17,5.4,14.4,7.3,21.8c4,15,6.2,30.5,7.3,45.9s.8,15.5.9,23.2,0,7.7,0,11.6,0,7.5.5,11.2c.9,6.4,4,12.7,9.7,16s13.6,1.7,19.6-1.7c11.5-6.6,21.6-15.7,31.4-24.6,9.8-8.9,19.3-18,30.1-25.6s22.4-13.6,35.3-15.4c11.9-1.6,25,.7,33.1,10.3,7.2,8.5,8,20.8,4.9,31.1-3.6,11.9-12.8,20.9-23.4,27-11.9,6.9-25.4,10.4-38.8,12.9s-31.1,4.6-46.2,9c-6.5,1.9-13.6,4.2-17.9,9.9s-4.1,11.2-2.8,17c3.1,13.6,15.5,21.4,25.4,29.9s18.6,20.6,23.7,33.5c4.5,11.3,9.1,27.5,0,37.8-7.3,8.3-20.2,9-30,5.5s-20.1-15.7-25.3-27c-5.9-12.9-8.8-26.9-15.1-39.6-1.6-3.2-3.4-6.5-5.6-9.3s-4.5-4.7-7.7-4.7-5.6,2.2-7.4,4.6-3.8,6.1-5.5,9.3c-7.3,13.4-13.1,27.7-21.4,40.6s-15.7,20.7-27,27-11.3,5.3-17.3,6c-5.6.7-11.3.2-16.7-1.3-10.1-2.8-19.7-9.6-22.6-20.1s4.3-27,14-35.8c5.4-4.9,11.6-8.9,17.8-12.6,6.8-4,13.7-7.9,20.6-11.8s14.4-8.2,21.7-12.3,12.8-6.8,9.7-13.5-9.6-5.9-14.5-6.5c-7.8-.9-15.6-1.5-23.4-2.2-15.4-1.4-30.8-2.9-45.8-6.8-13-3.3-25.3-8.5-36.1-16.4s-18.2-16.4-22.8-27.5-3.6-11.3-3.6-17.2.5-7.5,2.5-10.7,4-5,6.6-6.8c5.7-4,12.4-6.6,19.1-8.3,7-1.8,14.5-2.5,21.7-1.2,14,2.4,24.5,11.9,34.5,21.2s22.5,19.6,35,28c3,2,6.1,4,9.2,5.9s6.3,4,9.6,5.5,6.2,1.7,8.5-.6,2.3-4.9.3-6.6-3.6.9-2.1,2.1.4,1.7-.3,2.4c-1.2,1.2-3,.8-4.4.3s-3.4-1.7-5-2.6-3.3-1.9-4.9-2.9c-6.6-4-13-8.3-19.2-12.9s-12.1-9.3-17.8-14.4-10.3-9.7-15.7-14.3c-5.2-4.4-10.8-8.4-17.1-11.1-6.7-2.8-14-3.9-21.3-3.4s-14.5,2.2-21.2,5-12.2,5.7-16.4,11-5,12.8-4.1,19.7,2.5,11.5,5.2,16.8c5.5,11,14.6,20,24.6,26.9,11.3,7.8,24.2,12.7,37.5,15.8s30.9,5,46.5,6.4c7.7.7,15.5,1.2,23.1,2.3s5.5,1,7.7,2.6,2.5,4.1.8,6.1-5.5,4.1-8.4,5.7-7.4,4.2-11,6.3c-7.4,4.2-14.7,8.4-22.1,12.6-12.4,7.1-25.6,14.3-34.3,26.1s-11.4,24.6-5,36.4c5.3,9.7,16,15.5,26.6,17.4,12.2,2.1,24.3-1,34.7-7.6,11.1-7,19.8-17.3,26.6-28.4,8.1-13.2,14-27.7,21.6-41.2,1.6-2.9,3.2-6.2,5.6-8.4s5.6-1.4,7.8,1,4.1,6,5.7,9.1,3.1,6.7,4.5,10.2c4.9,13,8.3,26.7,15.6,38.7,6.5,10.6,16.2,19.6,28.8,21.6,10.9,1.8,23.4-1.2,29.3-11.3,3.5-5.9,4-12.9,3.1-19.6s-3-13.4-5.6-19.6c-5.4-12.9-13.7-24.4-24.4-33.4-9.8-8.3-22.9-16.6-24.4-30.6-.6-6.2,1.5-12.1,6.9-15.6,3-2,6.5-3.2,9.9-4.3s7.6-2.2,11.5-3.1c15.3-3.5,30.9-5,46.1-8.5,13-3,26-7.6,36.8-15.6,9.8-7.3,17.3-17.3,19.5-29.5s-.4-23-8.6-31.1-22.6-10.8-34.8-9c-13,1.9-25,8.2-35.6,15.8-10.9,7.7-20.6,16.9-30.4,25.9s-9.9,8.9-15.1,13.1-10.7,8.4-16.7,11.6-7,3.3-10.8,2.9-5.9-1.9-8-4.1c-5.1-5.2-5.7-12.7-5.7-19.5,0-15.7-.2-31.3-1.7-47-1.6-15.5-4.4-31-9.1-45.9s-9.6-28.1-22.6-35.1-26.4-5.7-37.3,2c-5.3,3.8-9.4,8.9-11.7,14.9-2.6,6.7-2.9,14.1-2,21.2,1.9,14.7,8.6,28.5,15.7,41.3s15.9,26.1,22.3,39.9,10.4,27.6,9.4,42.3,2.9,1.9,3,0h0Z"/>
  </g>
  <g>
    <path class="st5" d="M1197.3,504.8c1.3-16.4-6.2-32.3-14.9-46.8-8.7-14.5-18.8-28.5-23.5-44.4-2.7-9.1-3.4-19.1,1.4-27.4,4-6.9,11.8-11.9,20.3-13.1s17.6,1.5,23.7,7c4.8,4.3,7.6,10.1,10,15.8,10.2,25.2,12.2,52.5,12,79.4,0,4.6-.1,9.3,1.6,13.6,1.7,4.3,5.5,8.3,10.6,9,4.6.6,9.1-1.5,13-3.8,23.4-13.9,39.9-36.6,65.2-47.5,13.2-5.7,30.3-7.3,41.4,1.2,12.4,9.6,11.5,28.3,1.7,40-9.8,11.7-26,17.7-41.9,20.9-15.9,3.3-32.4,4.4-47.8,9.2-3.8,1.2-7.7,2.7-10.4,5.4-5.9,5.9-4.2,15.5.7,22.1,5,6.6,12.5,11.1,18.9,16.6,10.5,9.1,17.8,21,21.4,33.7,2.1,7.5,2.9,16.1-2,22.5-6.9,9.2-22.7,9.7-33,3.6-10.3-6.1-16-16.7-20.1-27.2-4-10.5-6.9-21.5-13.6-30.9-1.5-2-3.5-4.2-6.2-4.2-2.9,0-4.9,2.5-6.3,4.7-7.9,12.3-13.2,25.8-21.3,37.9-8.1,12.2-19.8,23.3-35,26.9s-33.9-3.3-38.2-16.9c-2.9-9.3,1.3-19.4,8.2-26.7,6.9-7.3,16.3-12.4,25.4-17.3,10.6-5.7,21.3-11.5,31.9-17.2,2.7-1.5,5.8-3.5,5.7-6.3,0-3.8-5.4-5.4-9.6-5.9-23.8-2.7-48.3-2.8-70.7-10.3-22.5-7.5-43.1-24.9-44-46.5-.1-2.8.1-5.6,1.2-8.2,2.3-5.3,7.8-8.7,13.5-11.2,10.7-4.6,23.3-6.6,34.6-3.1,10.9,3.5,19.1,11.6,27.5,18.8,12.1,10.5,25.6,19.8,40,27.5,1.9,1,4.1,2.1,6.2,1.6s3.6-3.3,1.8-4.5"/>
    <path class="st5" d="M1198.8,504.8c1.9-25.3-15.1-46.7-27.2-67.3-6-10.2-11.9-21.4-13.1-33.3-.6-5.6,0-11.5,2.7-16.5s6.4-8.1,11-10.4c9.7-4.9,22.5-3.6,30.8,3.7,4.4,3.9,7.2,9.1,9.5,14.4s4.4,11.9,6.1,18c3.2,12.3,4.9,25,5.7,37.6.4,6.3.6,12.5.6,18.8s-.7,12.9,1.4,18.9,5.4,9,10.4,10.4,11.7-1.3,16.6-4.3c9.4-5.7,17.8-12.9,26.1-20.1,16-13.8,33.6-29.6,55.7-31.2s20.7,1.7,26.6,10.2,5.2,17.5,1.6,25.7c-4.2,9.6-13,16.2-22.2,20.5s-22.2,7.4-33.8,9.3-25.4,3.6-37.6,7.4-10.7,3.9-13.4,8.9-2.3,9.5-.7,14c3.8,11,14.8,16.7,23,23.9,8.5,7.5,15.2,17.1,19.1,27.8s6.1,22.2-3,29.1c-7.1,5.4-17.9,5.1-25.8,1.5s-16-14.1-20.1-23.6-7.3-22.5-13.6-32.5c-2.6-4.2-6.8-9.5-12.3-6.6-2.3,1.2-3.9,3.6-5.2,5.8s-3.2,5.4-4.7,8.1c-5.9,10.8-10.9,22.1-18.2,32s-14.4,16.1-24.2,20.3-19.2,4.4-28.5,1-15.8-9.9-16.2-19.3,7.9-21,16.7-27.3,10.2-6.5,15.6-9.4c5.9-3.2,11.8-6.4,17.7-9.5s6.1-3.3,9.2-4.9,5.6-2.9,8.3-4.5,4-2.9,4.6-5.3-.4-4.3-2-5.7c-3.9-3.2-9.7-3.2-14.5-3.7s-13.1-1.1-19.6-1.7c-12.7-1.1-25.5-2.5-37.9-5.8-10.6-2.8-20.6-7.1-29.4-13.5s-14.9-13.3-18.4-22.5-2.7-9.4-2.3-14.3c.5-5.9,4.4-9.9,9.3-12.7s10.7-4.8,16.3-6,12.2-1.4,18.1-.2c11.4,2.4,20.1,10.3,28.5,17.8,9.2,8.1,19.1,15.6,29.6,22.1s5.2,3.1,7.8,4.6,5.1,3.2,7.9,4.1,5.1.7,6.8-1.3,1.6-4-.1-5.4-3.6.9-2.1,2.1.2,1.1-.3,1.6c-1.1.9-2.8.4-3.9,0-2.9-1.1-5.7-3-8.4-4.5-5.5-3.2-10.8-6.6-16-10.2s-10.2-7.4-15-11.5-8.7-7.7-13.2-11.4-9.2-6.8-14.5-8.9-11.7-3.1-17.8-2.8-12.2,1.7-17.9,3.9-10.2,4.4-13.8,8.4c-7.2,7.9-4.5,20.4-.2,29.2s12,16.4,20.2,22c20.4,13.8,45.6,16.4,69.5,18.4s12.9,1.1,19.3,1.7c2.6.3,5.2.5,7.6,1.4s3.8,1.8,3.4,3.8-3.4,3.7-5.2,4.7c-3,1.6-6,3.2-9,4.8-6.1,3.3-12.2,6.6-18.4,9.9-10.6,5.7-22.1,11.2-30.4,20.2s-12,19.5-7.5,30,12.3,13.6,20.9,15.7,20.2.8,29.3-3.8,17.4-12.7,23.6-21.4c7.3-10.3,12.4-22,18.6-33s3-5.5,4.8-8,3.6-3.9,6.2-2.7,4,4.1,5.3,6.3,2.9,5.3,4.1,8.1c4.6,10.6,7.3,22,13.2,31.9,5.3,8.8,13.2,16.4,23.4,18.7,8.7,1.9,19.5.7,25.5-6.5s4.5-21.7.6-31.5c-4.3-10.7-11-20.3-19.8-27.8s-19.7-13-22.2-24.3.1-10,4.3-13.1,5.1-2.8,7.8-3.6,6.1-1.8,9.1-2.5c23.5-5.5,49.5-5.1,70.5-18.5s15.7-13.2,18.3-23.2c2.3-8.9.8-18.8-5.5-25.8s-18.1-10-28.1-9.1c-11,1-21.3,5.4-30.5,11.3-18.8,11.9-33.4,29.3-52.5,40.7s-11.1,5.7-16.6,2.2-6.4-9.1-6.6-14.7,0-12.7-.2-19.1-.5-12.9-1.2-19.3c-1.3-12.8-3.6-25.5-7.6-37.6-3.6-11-8.2-23.1-18.9-29-9.8-5.4-22.1-5.2-31.6.7s-8.2,6.7-10.4,11.5-3,11.2-2.4,16.9c1.3,12,6.9,23.2,12.8,33.5,6.3,10.9,13.6,21.2,19.2,32.4s9.2,22.4,8.3,34.5,2.9,1.9,3,0h0Z"/>
  </g>
  <g>
    <path class="st8" d="M472.9,844.5c11.3-28.3-.2-60-12.7-87.8-11.6-25.7-24.2-51-33.5-77.6-6.5-18.4-11.3-37.9-8.8-57.3s13.8-38.5,32.1-46.4c28.3-12.3,62.6,7.1,76.7,34,14.1,26.8,13.3,58.4,12.2,88.5-1,28.2-2,56.3-3,84.5-.3,9.4-.6,19,2.6,27.9s10.9,16.9,20.5,17.8c7.8.8,15.3-3.1,21.9-7.3,28.1-18.1,49.4-44.3,72.5-68.2,23.1-23.9,49.9-46.6,82.8-53.9,15.6-3.5,33.2-2.9,45.8,6.6,12.6,9.4,17.8,26.2,15.6,41.5-2.2,15.3-10.8,29.1-21.4,40.5-35.7,38.3-91,51.3-139.9,71.6-11.8,4.9-23.8,10.7-31.5,20.6-12.5,16-10.6,39.2-1.4,57.2,9.2,18,24.4,32.3,38.4,47.1,23.7,25.3,45.3,55.9,45.5,90.2,0,5-.4,10.1-2.7,14.6-2.3,4.7-6.5,8.4-11,11.3-21.4,13.5-51.1,8.9-71.9-5.4-20.8-14.4-34.2-36.7-44.4-59.5-10.2-22.7-18-46.6-30.8-68-1.4-2.3-2.9-4.7-5.3-6-8.9-4.9-16.6,8-18.8,17.7-7.3,32.1-20.5,63.4-42.1,88.5-21.7,25.2-52.5,43.8-86,47.5-7.2.8-15,.8-21.3-2.9-5.2-3.1-8.6-8.3-11.4-13.5-15.9-30.6-13-69.7,7.3-97.8,21.3-29.5,57.5-44.7,91.7-58.8,8.2-3.4,16.7-7,22.9-13.3,6.2-6.3,9.5-16,5.7-23.9-4.6-9.4-16.7-12.2-27.3-13.9-33.2-5.4-66.3-10.8-99.5-16.2-25.9-4.2-52.4-8.6-75.3-21.1-22.9-12.4-42-34.7-42.8-60.2s22.1-51.5,48.2-48.6c10,1.1,19.1,6,27.9,10.7,50.9,27.7,101.3,56.1,151.2,85.3,5.2,3,11,6.2,16.9,5,5.9-1.2,10.2-9.2,5.6-13.1"/>
    <path class="st8" d="M474.3,844.9c9.2-23.4,3.2-49-5.5-71.5s-10.2-23.6-15.6-35.3c-5.5-11.9-11-23.8-16.1-35.9s-9.9-24.5-13.5-37.1-5.8-25.6-4.9-38.6c1.5-20.3,12.2-41.1,31.5-49.6,18.1-8,38.8-2.1,54.1,9.1,7.9,5.8,14.7,13.2,19.6,21.7s9.3,21.3,11.3,32.7,2.6,24,2.6,36.1-.7,25.6-1.1,38.3c-.5,13.7-1,27.5-1.5,41.2s-.5,13.6-.7,20.4-.6,12.8-.3,19.2c.5,11.1,3.9,22.3,13.1,29.3,4.1,3.1,9.2,4.9,14.4,4.7,6-.2,11.7-2.7,16.8-5.7,10.3-6,19.7-13.6,28.5-21.6s17-16.4,25.1-25c16-17,31.5-34.5,49.7-49.1s37.8-25.6,60.2-29,22.5-1.2,32.4,3.4c9.5,4.5,16.4,12.7,19.7,22.7,7.2,22-3.8,44.1-18.4,60.2-14.5,15.8-32.7,27.5-51.8,36.9-19.7,9.6-40.4,16.9-61,24.6-10.3,3.8-20.5,7.7-30.5,12s-20.5,9.7-27.8,18.3c-14.1,16.6-12.2,40.9-3,59.4s29.1,37,44.7,54.5c15.1,17,28.9,36.1,35.6,58.1,1.6,5.3,2.8,10.8,3.4,16.3.6,5.7,1,11.7-.3,17.3-2.4,11.1-13.4,17.8-23.5,21-20.4,6.5-43.5.6-60.6-11.7s-30.6-33-40.1-53.1-18.3-46.7-30.6-68.6-5.1-10.2-10.5-11.6-7.9.9-10.7,3.8c-7.3,7.5-8.4,18.5-11.1,28.2-6.3,22.6-15.7,44.4-29.3,63.6-12.9,18.3-29.7,33.8-49.3,44.5s-20,9.4-30.8,12-10.8,2.3-16.3,2.7-11.9.4-17.1-2.2-8.5-7.1-11.2-11.9-4.7-9.6-6.4-14.7c-3.4-10.3-4.9-21.1-4.5-31.8.7-21.7,8.8-42.6,23.2-58.8,14.4-16.2,33.3-27.5,52.7-36.7,10-4.8,20.2-9,30.4-13.3,10.2-4.2,21.4-8.5,28.2-17.8s5-9.3,5-14.5-2.1-9.5-5.6-12.9c-7.3-7.1-18.3-8.5-27.9-10.1-27.2-4.4-54.3-8.9-81.5-13.3-24.8-4-50.1-7.2-73.7-16.1-20.3-7.7-39.3-20.6-50.2-39.8-4.9-8.7-8-18.7-7.7-28.7s3.9-19,9.5-26.7c5.6-7.6,13.5-13.8,22.6-16.6s9.2-1.9,13.9-1.5,12.2,2.8,17.8,5.4,11.3,5.9,16.9,9,11.8,6.5,17.7,9.7c12,6.6,23.9,13.2,35.8,19.9,23.8,13.3,47.5,26.8,71.2,40.5s11.1,6.4,16.6,9.7,10.4,6.5,16.4,7.1,9.1-1.2,11.7-5.3,2.4-7.8-.7-10.5-3.6.8-2.1,2.1c3.1,2.7.8,7.4-2,9.3-4.8,3.3-11.3.4-15.8-2s-11.6-6.7-17.4-10.1-11.9-6.9-17.9-10.4c-23.7-13.6-47.4-27.1-71.3-40.3-12-6.7-24-13.3-36.1-19.9s-11.6-6.4-17.4-9.4-11.3-5.5-17.4-6.9c-9.9-2.3-20-.8-28.8,4.1-8.4,4.7-15.3,12-19.9,20.4-4.7,8.6-6.9,18.4-6,28.2s4.8,20,10.5,28.6c12.4,18.7,31.9,30.8,52.7,38.1,11.7,4.1,23.9,6.9,36.2,9.2s25.9,4.4,38.9,6.5c27.1,4.4,54.2,8.7,81.3,13.3,8.8,1.5,20.2,3.7,24.9,12.3s2.2,9.9.3,14.6-5.9,9.3-10.5,12.4-10,5.6-15.2,7.8-10.3,4.3-15.5,6.5c-10.2,4.3-20.3,8.8-30,14-19.1,10.1-37.2,23-49.7,40.8-12.4,17.7-18.2,39.8-16.8,61.3.7,10.8,3.2,21.4,7.5,31.3s4.7,10.1,8.3,14.3,8.7,7.3,14.4,8.3,11.4.5,17.1-.2,11-1.9,16.4-3.4c10.6-3,20.8-7.5,30.3-13.1,19.6-11.5,36-27.5,48.8-46.2,13.2-19.4,22.4-41.5,28.5-64.1s2.2-10.6,4.2-15.6,4-8.3,7.6-10.6,3.2-1.6,5-1.2,4.3,2.2,5.7,4.2c3.5,5.1,6.2,10.8,8.9,16.3,10.9,22.2,18.4,46,30,68s24.4,38.5,44.1,49.5c18.4,10.3,42,13.8,61.7,4.7,4.9-2.3,9.8-5.3,13.4-9.4s5.9-9.7,6.5-15.5c1.1-11.2-1.1-23-4.6-33.6-7.3-21.9-21.3-41-36.6-58-15.6-17.4-34.5-33.3-44.2-55-4.3-9.7-6.5-20.6-5.4-31.2,1.1-10.7,6-20.3,14.2-27.3s19.2-11.7,29.5-15.8c10.3-4.2,20.7-8,31.1-11.8,20.6-7.6,41.3-15.3,60.7-25.6s37.1-22.9,50.4-40c7.1-9.1,12.8-19.6,15.1-31,2-10.2,1-20.9-3.3-30.3-4.4-9.6-12.2-17-22.1-20.9s-21.9-4.2-32.7-2.4c-22.6,3.7-43.1,15.6-60.7,29.7s-33.8,32.1-49.7,49.1c-8.2,8.8-16.6,17.4-25.6,25.4s-18.4,15.8-28.9,21.6c-5.2,2.9-11.1,5.2-17.1,4.3s-9.4-3.5-12.7-7.1c-8.2-8.9-8.8-21.5-8.5-32.9.7-27.5,2-55.1,3-82.6.9-24.2,2.2-49-3.8-72.7s-7-21.6-13.6-30.7-13.2-15-21.7-20.2c-16.4-10.2-37.4-13.9-55.1-4.6-18.9,9.9-29.1,31.2-30.3,51.9s1.5,26,5,38.5,8.4,25,13.5,37.1,10.7,24.3,16.3,36.4,11,23.5,15.7,35.6c8.4,21.8,14.1,46.5,5.2,69.1s2.2,2.6,2.9.8h0Z"/>
  </g>
  <g>
    <path class="st3" d="M943.8,96.3c1.3-17.8-6.1-35.1-14.6-50.8-8.5-15.7-18.4-31-23.1-48.2-2.6-9.8-3.4-20.8,1.4-29.8,3.9-7.5,11.5-12.9,19.9-14.2s17.2,1.6,23.2,7.6c4.7,4.7,7.5,10.9,9.8,17.2,10,27.4,12,57.1,11.8,86.2,0,5-.1,10.1,1.5,14.8s5.4,9,10.4,9.8c4.5.7,8.9-1.6,12.7-4.1,23-15.1,39.1-39.7,63.9-51.6,12.9-6.2,29.7-8,40.6,1.3,12.2,10.4,11.3,30.7,1.7,43.5s-25.5,19.2-41.1,22.7-31.8,4.8-46.9,10c-3.7,1.3-7.5,2.9-10.2,5.8-5.8,6.4-4.2,16.9.7,24,4.9,7.1,12.3,12,18.5,18,10.3,9.9,17.4,22.8,21,36.6,2.1,8.1,2.8,17.4-1.9,24.4-6.8,10-22.3,10.5-32.4,3.9-10.1-6.6-15.7-18.1-19.7-29.5-4-11.4-6.8-23.4-13.3-33.5-1.4-2.2-3.4-4.5-6.1-4.5-2.8,0-4.8,2.7-6.2,5.1-7.7,13.3-13,28-20.9,41.2-7.9,13.2-19.4,25.4-34.3,29.2s-33.3-3.6-37.5-18.4c-2.9-10.1,1.3-21.1,8-29,6.8-8,15.9-13.5,24.9-18.8,10.4-6.2,20.9-12.4,31.3-18.7,2.7-1.6,5.7-3.8,5.6-6.9,0-4.2-5.3-5.9-9.4-6.4-23.3-2.9-47.3-3-69.4-11.2-22-8.1-42.3-27-43.2-50.5-.1-3,.1-6.1,1.2-8.9,2.2-5.7,7.7-9.5,13.2-12.1,10.5-5,22.9-7.2,33.9-3.3,10.7,3.8,18.7,12.6,26.9,20.4,11.9,11.4,25.1,21.5,39.2,29.9,1.9,1.1,4,2.2,6.1,1.7s3.5-3.5,1.8-4.9"/>
    <path class="st3" d="M945.3,96.3c1.8-26.3-13.7-49.1-25.7-71.2-6-11.1-11.6-22.8-13.5-35.4-.9-5.8-.8-12,1.1-17.6s5.2-9.9,9.7-13c9.2-6.4,21.7-6.1,30.5.9s7.7,9,10,14.5c2.5,6,4.5,12.3,6.1,18.6,3.4,12.8,5.2,25.9,6.2,39s.8,13.4.9,20.1-.3,13.3.2,19.9,2.1,11.4,6.6,15.2,4.4,2.9,7.1,3.2,6.1-.6,8.8-1.9c5.2-2.5,9.9-6.3,14.3-9.9s8.5-7.4,12.6-11.3c8.1-7.7,15.9-15.6,24.7-22.5s18.3-12.5,29.1-14.5,21.4-.4,28.5,7.6c6.3,7.1,7.4,17.4,5.2,26.3-5.5,22.4-29.7,31.7-50,35.9-13.2,2.7-26.7,4.1-39.6,8.1-5.4,1.7-11.4,3.6-15.1,8.2s-3.9,9.5-3.1,14.5c2,11.8,12,19,20.4,26.4,8.8,7.8,15.7,17.6,20.1,28.6,2.1,5.4,3.9,11.2,4.5,17,.6,5.5,0,11.3-3.1,16.1-5.3,7.9-16.4,8.9-24.8,6.1s-16.8-13.2-21.1-22.6-7.5-23.3-12.6-34.5c-1.3-2.8-2.7-5.5-4.4-8.1s-3.1-4.2-5.6-5c-6-1.8-9.3,5.5-11.5,9.6-6.2,11.5-10.9,23.7-17.4,35-10,17.5-28,35.9-50.2,30.7s-17.2-7.8-20-16.7c-3.5-11.3,2.2-23.1,10.1-31s9.4-8,14.6-11.3,11.5-6.9,17.2-10.4,12-7.2,18-10.7,11.3-5.8,9.6-11.8c-1.4-4.8-7.4-5.9-11.6-6.5-6.5-.8-13-1.4-19.5-2-13.1-1.2-26.2-2.6-38.9-6-20.2-5.4-40.8-17.9-48.7-38.3-1.9-4.8-2.9-9.8-2.9-14.9s.4-6.3,2-9.1,3.2-4.2,5.4-5.8c4.7-3.5,10.5-5.8,16.1-7.3s12.3-2.1,18.4-.8c11.7,2.4,20.3,11,28.5,19,9.1,8.9,18.8,17,29.2,24.3,2.5,1.8,5.1,3.4,7.7,5.1s5.1,3.4,7.9,4.5,5.1.9,6.8-1.2,1.7-4.2,0-5.7-3.6.8-2.1,2.1.2,1.4-.3,1.9c-1,1-2.7.4-3.8,0-2.9-1.3-5.7-3.3-8.4-5.1-5.4-3.5-10.7-7.2-15.8-11.2-5.1-4-10-8.2-14.7-12.6-4.3-4.1-8.4-8.4-12.9-12.3s-9.1-7.3-14.6-9.6-12-3.2-18.1-2.7-12.2,2.3-17.8,4.8-9.9,5.3-13.1,9.9-3.6,11.2-2.9,17c.7,5.2,2.2,10.2,4.6,14.9,4.6,9.3,12.1,17.1,20.5,23.1,20.5,14.7,46.4,17.1,70.7,19.3s6.8.6,10.1,1,6,.5,9,1.1,4.7,1.1,6.1,2.9,0,4.3-1.6,5.7c-2.4,2-5.5,3.5-8.2,5.1s-6.3,3.8-9.4,5.6c-6,3.6-12.1,7.2-18.1,10.8-10.3,6.2-21,13-27.4,23.5s-7.7,21.7-1.5,31.4c5.1,8,14.2,12.6,23.3,13.7s20.7-2.3,29.1-8.5c20.4-15.2,27.3-40.4,39.2-61.7,1.2-2,2.5-5,4.9-5.8s4.7,2.1,6,4c3.4,5.4,5.8,11.2,7.8,17.2,3.9,11.2,6.8,23,13.2,33.1s6.7,9,11.3,12.2,8.6,4.5,13.4,5c9.6,1.1,19.8-2.8,23.7-12.1s2.3-11.4,1.4-17.1c-.9-5.8-2.8-11.4-5.1-16.8-4.6-10.9-11.6-20.6-20.5-28.4s-19-14.9-19.4-27.1,2.2-10.2,7.1-13,5.8-2.6,8.8-3.5,6.3-1.8,9.5-2.5c23.5-5.3,49.9-5.9,69.1-22.3,8-6.8,13.3-15.9,14.4-26.4s-1.5-19.5-8.7-26c-8.1-7.3-19.6-8.5-29.9-6.4s-20.7,8-29.5,14.8-16.9,14.9-25.1,22.7-8.5,7.9-12.9,11.6-4.3,3.4-6.6,5-5.1,3.6-8,4.8-5.9,1.7-8.7.5-4.3-2.9-5.7-5.1c-3.3-5.4-2.9-12.2-2.9-18.3,0-13.5-.3-27.1-1.8-40.5-1.4-13.2-3.9-26.3-7.9-39-3.6-11.4-8.4-23.8-19.8-29.4-10.2-4.9-22.1-3.5-30.8,3.7-4.3,3.5-7.4,8.3-9.1,13.6s-1.9,12.3-1,18.4c1.8,12.5,7.4,24.3,13.3,35.4,6.1,11.4,13,22.5,18.3,34.4s8.5,23.8,7.6,36.4c-.1,1.9,2.9,1.9,3,0h0Z"/>
  </g>
  <g>
    <path class="st7" d="M189.5,295.1c2.2-34.3-12.9-67.4-30.3-97.5-17.4-30.1-37.7-59.2-47.4-92.3-5.5-18.9-7.2-39.9,2.2-57.4,7.8-14.5,23-25.1,39.8-27.8,16.8-2.6,34.8,2.8,46.9,14.2,9.5,8.9,15.3,20.9,20,32.8,20.7,52.5,25.2,109.6,25.4,165.7,0,9.6,0,19.4,3.4,28.5,3.4,9,11.1,17.2,21.1,18.6,9.1,1.2,17.9-3.3,25.5-8.2,46-29.5,78.1-77.3,127.8-100.7,25.9-12.2,59.7-16,81.9,1.7,24.7,19.7,23.4,58.9,4.2,83.7-19.2,24.8-51,37.5-82.4,44.6-31.3,7.1-63.9,9.9-94.2,20.3-7.5,2.6-15.1,5.8-20.4,11.5-11.6,12.4-8.1,32.6,1.9,46.2,10,13.6,25,22.9,37.6,34.3,20.9,18.8,35.6,43.5,43,70,4.4,15.6,6,33.5-3.4,47-13.4,19.4-44.7,20.7-65.2,8.3-20.5-12.5-32.1-34.6-40.2-56.4-8.2-21.8-14.2-44.8-27.5-64.2-2.9-4.2-7-8.7-12.3-8.6-5.7.1-9.6,5.3-12.4,10-15.3,25.8-25.6,54.2-41.4,79.8-15.7,25.6-38.6,49.2-68.6,56.9-30,7.7-67.1-6.1-75.9-34.6-5.9-19.3,2.1-40.6,15.7-56.1,13.5-15.5,31.9-26.3,49.9-36.8,20.9-12.2,41.8-24.4,62.7-36.6,5.4-3.1,11.4-7.4,11.2-13.4-.2-8-10.8-11.2-19.1-12.1-47-5.1-95.4-4.8-140-20-44.5-15.2-85.8-51-87.9-96.2-.3-5.8.1-11.8,2.3-17.2,4.4-11,15.3-18.4,26.4-23.6,21.1-9.9,46-14.4,68.2-7.2,21.7,7,38,23.8,54.6,38.7,24.1,21.7,50.9,40.8,79.6,56.7,3.8,2.1,8.1,4.2,12.3,3.2,4.2-1,7-6.9,3.5-9.4"/>
    <path class="st7" d="M191,295.1c1.6-25.2-6.1-49.8-16.8-72.3s-24.8-43.7-37.3-65.5c-12.1-21.1-23.6-43.9-27.2-68.2s-1.3-23.9,3-35,11.2-18.5,20.2-24.4,19.9-9,30.8-8.7,22.1,3.9,31.1,10.4,16,17,20.8,27.6,9.3,23.6,12.8,35.7c7.2,24.9,11.3,50.5,13.6,76.3s1.8,26,2.2,39.1.3,13.1.3,19.7-.1,12.9.6,19.3c1.2,11.1,5.4,22,14.9,28.5s9.8,4.5,15.2,4.2,11.8-2.9,17.1-5.8c9.7-5.5,18.7-12.5,27.4-19.6s16.8-14.5,24.9-22c16.2-15.1,32.1-30.6,49.9-43.7s37.2-23.6,59-27.2c20-3.3,42.6,0,56.8,15.7s14.9,34.2,10.4,51.8c-2.4,9.3-6.7,18.1-12.6,25.5s-15.2,15.6-24.4,21.4c-19.2,12.1-41.3,18.7-63.4,23.3s-52.1,8.4-77.5,15.7c-6,1.7-11.9,3.6-17.6,6.1s-10.2,5.3-14,9.7c-6.7,7.8-8.1,18.3-6.1,28.1,4.7,23.1,25.9,36.2,42.6,50.4,17.7,14.9,31.5,33.9,40.4,55.3s7.9,21.5,9.1,32.8-.3,22.6-7.1,31.5c-11.3,14.8-32.9,17.1-49.7,12.1-20.6-6-34.8-23.9-44.1-42.4-10.7-21.2-15.8-44.7-26-66.1s-5.6-10.9-9-16-6.6-9.1-11.9-10.2-9.8,1.9-13,5.9-6.5,10.2-9.3,15.5c-12.2,22.8-21.7,46.9-35.2,68.9s-25.8,35.2-44.3,46.4-18.9,9.4-29.2,11.1-18.9,1-28-1.2c-17.1-4.1-33.9-15-39.8-32.3s4.1-45.3,19.5-60.8,18.4-15.5,28.6-21.8,22.3-13.3,33.5-19.8c12.1-7.1,24.2-14.1,36.3-21.2s10.9-5.8,15.6-9.7,6.6-7.7,5.2-12.7-4.9-6.8-8.6-8.4-9.5-2.6-14.4-3.1c-13-1.3-26-2.3-39.1-3.3-25.9-2-52-4.3-77.3-10.4-11.5-2.8-22.8-6.3-33.6-11s-18.9-9.5-27.5-15.6c-16.4-11.6-30.8-26.9-39.2-45.4-4-8.9-6.4-18.5-6.9-28.2s0-12.8,2.8-18.5,5.9-8.8,10-12.2,9.1-6.3,14-8.7,11.2-4.9,17-6.6c11.7-3.5,24-5.2,36.3-4,11.9,1.2,23,5.4,33,11.8s18.5,13.9,27,21.7,18.2,16.4,27.7,24.1,20.1,15.4,30.7,22.4,20.7,13.3,31.5,19.1,10.8,4.8,15.3,1.2,4.7-7.6,1.2-10.4-3.6.9-2.1,2.1,1.3,3.1.3,4.6-3.8,2.8-6.3,2.4-6.1-2.1-8.8-3.6-5.5-3.1-8.3-4.7c-11.1-6.5-21.9-13.5-32.4-21s-20.3-15.2-30-23.4-17.6-16.1-26.7-23.9-18.1-14.5-28.7-19.2-23-6.9-35-6.4-24.6,3.5-36.1,8.2-20.8,9.7-27.8,18.4-6,9.7-7,15.4-.7,11.6,0,17.3c1.3,9.8,4.4,19.3,8.9,28.2,9.4,18.2,24.5,33,41.3,44.3,19,12.8,40.6,20.7,62.8,25.7s51.9,7.8,78,9.9c6.5.5,13,1,19.6,1.6s12.8,1,19.2,1.8,9.2,1.7,12.8,4.3,4.8,6.7,2.4,10.6-8.7,7.4-13.3,10.1-12.2,7.1-18.3,10.7c-12.1,7.1-24.2,14.1-36.3,21.2-20.8,12.1-43,24.3-57.8,43.8s-19.8,41-9.2,61,26.6,25.9,44.3,28.8c9.3,1.6,19,1.5,28.2-.6s20.6-6.9,29.6-12.9c18.4-12.1,32.6-29.6,43.7-48.3s22.8-46.7,35.3-69.4,3.1-5.6,4.8-8.3,2.9-4.3,4.9-6,4.2-2.5,6.7-2.2,4.8,1.9,6.6,3.7,3.5,4.3,5.1,6.7,3.2,5.2,4.7,7.9c3,5.5,5.6,11.3,7.9,17.1,8.7,21.7,14.3,44.8,26.6,64.9,5.7,9.4,12.8,18,21.6,24.7s16.7,9.9,26.3,11.4c18.1,3,39.2-2.2,48.6-19.3s6-21.5,4.4-32.5-5.4-22.5-10-32.9c-9.4-21.4-23.6-40.1-41.5-55-16.7-13.8-38.4-27.7-40.8-51.4s0-9.8,1.7-14.4,5.3-9,9.6-11.9,10.7-5.6,16.4-7.5,12.6-3.9,18.9-5.4c25.6-6.3,51.9-9.1,77.4-15.3s43.3-13,61.2-26.4c8.4-6.3,16.2-13.9,21.9-22.8s8.7-17.3,10.3-26.7c3.1-18.3-1.1-38.3-15-51.4s-38.5-17.3-58.9-13.6c-21.8,3.9-41.5,15-59.1,28-17.8,13.2-33.8,28.8-50,43.9s-16.5,15.2-25.2,22.2-8.7,6.9-13.2,10.1-9.6,6.7-14.8,9.4-11.5,5-17.7,4.2-9.7-3.3-13.3-6.9c-8.7-8.8-9.9-21.4-10.1-33.2s-.2-25.9-.7-38.8c-.5-13.1-1.4-26.2-2.9-39.2-2.8-25.8-7.6-51.5-15.6-76.2s-8.1-23.8-14.2-34.6-13.5-18.9-23.9-24.5-21.1-7.7-32.2-6.9c-10.8.8-21.3,4.8-29.9,11.2-8.8,6.6-15.5,15.5-19,25.9s-4,23.4-2.2,35,5.8,24,10.6,35.3c4.9,11.6,10.8,22.7,17.1,33.6,12.6,21.9,26.7,43,37.5,66s17.5,45.6,16,70,2.9,1.9,3,0h0Z"/>
  </g>
  <g>
    <path class="st2" d="M506.6,850.5c3.1-63.8-26.8-124.1-41.5-186.4-2.3-9.9-1.5-24,8.8-25.5,9.4-1.4,14.9,9.9,17,18.9,12.4,55.9,13,114,27.4,169.5,2.3,9.1,5.7,18.9,13.8,23.8,9.1,5.5,21,3.1,31-.7,54.3-20.4,90.1-71.4,141.1-98.6,11.1-5.9,27.5-9.5,34.4.8,6.9,10.2-2.8,23.3-12.8,30.6-21.3,15.7-46.6,25.1-71.1,35.4-24.5,10.4-49.1,22.3-67,41.6-17.8,19.3-27.6,47.6-18.1,71.8,5.3,13.5,15.8,24.3,24.5,36,18,24.2,28.4,52.9,36.8,81.6,2,6.8,3.4,15.3-2,20-5.2,4.4-13.8,2.3-18.5-2.6s-6.5-11.7-8.5-18.1c-12.8-41.9-38.8-79.9-73.5-107.8-2.6-2.1-5.5-4.2-8.9-4.3-2.3,0-4.5.9-6.5,2-27.1,13.7-41.8,42.2-57.2,67.8-15.5,25.6-37,52-67.3,55.4-4.3.5-9,.4-12.3-2.3-6.8-5.4-3.1-16.1,1.5-23.3,21.4-33.9,49.6-63.6,82.7-87,13.9-9.8,29.9-20.5,32.4-37,2.5-16.8-11.3-32.5-27.3-39.4-16-6.9-34-7.3-51.3-9.5-26.1-3.3-51.6-10.6-76.5-18.8-23.6-7.8-49.6-19.2-57.5-42.2-.6-1.9-1.1-4-.1-5.8.9-1.6,2.9-2.4,4.7-2.9,18.1-4.9,36.2,6.3,52.2,15.9,42.4,25.4,89.9,42.8,138.9,51.1,5.7,1,11.7,1.8,17.3.3,5.6-1.5,10.9-5.8,11.5-11.4"/>
    <path class="st2" d="M508.1,850.5c.9-19.7-1.3-39.5-5.2-58.8-4-19.6-9.8-38.8-15.7-57.8s-12.3-38.3-17.5-57.8-4.7-15.6-4-23.7,3.1-12.3,9.8-12.3,11,8.2,12.8,13.9,2.1,8.8,3,13.2,2,10.3,2.8,15.5c3.5,20.8,5.9,41.8,8.5,62.7s5.3,41.7,9.6,62.3c1.1,5.2,2.2,10.3,3.5,15.4s2.1,8.6,3.6,12.8c2.8,7.7,7.4,14.8,15.2,18s18,1.6,26.3-1.2,15.9-6.4,23.3-10.5c14.8-8.1,28.4-18.4,41.5-29.1s26-22.2,39.3-33c6.6-5.3,13.4-10.5,20.5-15.3s14-9.3,21.5-12.9,14-5.4,21.1-4.2,6.2,1.9,8.3,4.3,3.4,6.5,2.8,10.2c-1.3,8.2-8.1,15.1-14.5,19.8s-16.2,10.6-24.8,15c-17.4,8.8-35.7,15.6-53.6,23.5-17,7.5-33.8,16-48.2,27.8-13.7,11.2-24.7,25.5-30.2,42.5s-3.9,16.4-3.3,24.8,3.2,17.1,7.4,24.7,10.6,15.3,16.4,22.6,11.4,15.5,16.2,23.9c9.5,17,16.4,35.3,22.1,53.8,1.3,4.3,2.8,8.7,3.8,13.1s1.3,7.8-.1,11.3c-3.3,7.9-13.7,6-18.6,1s-5-7.4-6.4-11.5-2.6-8.5-4-12.7c-2.9-8.4-6.2-16.6-10.1-24.5-7.7-16-17.4-31.1-28.7-44.8s-11.7-13.4-18.1-19.5-6.6-6.1-10-9-6.9-6.3-11-7.9-8.9.1-13,2.3-7.1,4.3-10.4,6.8c-6.6,5-12.3,11-17.5,17.4-10.6,13.1-18.8,27.9-27.5,42.3s-18.3,27.9-30.8,38.7-12.9,9.8-20.4,12.8-7.6,2.7-11.6,3.4-8.6,1.4-12.6,0c-8.2-3-5.7-12.9-2.8-18.8s4.4-7.5,6.8-11,5.3-7.7,8.1-11.4c11.1-15,23.7-29,37.4-41.8s14-12.5,21.4-18.2,14.3-10.3,21.3-15.6,12.7-10.2,17.2-17,6.4-14.4,5.2-22.2c-2.5-16.6-17.7-28.7-32.7-34s-19.2-4.7-29-5.9c-10.2-1.1-20.3-2.1-30.4-3.8-20.7-3.6-41-9.4-61-16-15.1-5-30.8-10.6-43.4-20.6s-10.9-10.3-14.2-17.1-1.7-3.7-2.2-5.6-.3-3.9,1.9-5,4.5-1.4,6.7-1.6,4.5-.3,6.8-.1c9.7.7,18.8,5,27.2,9.6s16.9,10,25.6,14.8c17.3,9.4,35.3,17.6,53.7,24.4,18.5,6.8,37.6,12.3,56.9,16.3,4.6,1,9.3,1.8,13.9,2.7s9.7,1.7,14.6,1.4c7.9-.5,16.5-5,17.6-13.6s-2.8-1.9-3,0c-.5,4-3.7,7-7.1,8.7s-9.7,2.2-14.5,1.6-10-1.6-15-2.5-9.7-2-14.5-3.1c-19.4-4.5-38.4-10.5-56.9-17.8-18.5-7.3-36.5-16.1-53.7-26.1-16.1-9.4-34.1-22.2-53.9-18.9-4,.7-9.2,2-9.6,6.9s.6,4.1,1.3,5.9,1.5,3.6,2.5,5.3c3.7,6.7,9,12.3,15,16.9,13,10,28.9,15.6,44.4,20.7,20.1,6.6,40.6,12.4,61.5,15.9,10.1,1.7,20.3,2.6,30.5,3.7,10,1.1,20,2.7,29.5,6.4,14.6,5.6,29.6,19.1,28.9,36.1s-16.5,27.7-28.9,36.4-29.8,22.6-43.1,35.8c-13.3,13.3-25.5,27.8-36.1,43.2s-5.2,7.5-7.5,11.5-3.7,7-4.5,10.9-.7,7.3,1.2,10.5,6,5.3,10,5.7,8.5-.3,12.6-1.2c4-.9,7.9-2.2,11.6-3.9,7.5-3.3,14.2-8,20.3-13.3,12.6-11.1,22.4-25.1,31-39.4,8.7-14.5,17-29.5,27.8-42.5s11.3-12.4,18.1-17.2c3.4-2.4,7.1-4.7,10.9-6.4s4.5-1.5,6.8-.8,4.1,2.2,5.9,3.7c14,11.3,26.7,24.3,37.6,38.7,10.9,14.3,20,29.9,27.1,46.4,3.5,8.2,6.4,16.7,9,25.2s6.1,16.6,14.7,19.7,7.7,1.5,11.2-.1,5.7-5,6.4-8.6.2-7.9-.7-11.7-2.6-9-4-13.5c-5.8-18.6-12.8-37-22.5-54-4.8-8.4-10.3-16.3-16.4-23.9s-11.9-14.7-16.4-23-6.3-16.2-6.4-24.9c0-8.6,1.7-17.2,4.9-25.2,6.6-16.9,19-30.6,33.4-41.2,15.2-11.1,32.4-19.1,49.7-26.4,18.2-7.7,36.7-14.8,54-24.5s8.4-4.9,12.4-7.6,7.5-5.2,10.7-8.5c5.5-5.6,10.9-13.4,9.6-21.7-1.2-7.5-7.7-12.1-14.8-12.9-7.4-.8-15,1.5-21.6,4.6-7.6,3.6-14.8,8.2-21.7,13s-13.9,10.1-20.6,15.4c-13.5,10.8-26.3,22.3-39.7,33.2-13.2,10.8-26.9,21.1-41.9,29.2s-15.6,7.9-23.9,10.5c-8.3,2.6-18.1,3.9-25.8-1.1s-10-13.1-12.1-20.8-4.9-20.3-6.8-30.5c-3.9-20.9-6.4-42-9-63.1-2.6-21-5.2-42.1-9.1-62.9s-1.9-10.3-3.2-15.4-2.1-7.1-3.9-10.3c-3.3-6-9.4-11-16.6-8.7s-8.7,8.9-9.1,15.1,2,16.2,4.1,24c5.2,19.7,11.6,39,17.7,58.4s11.8,38.5,15.8,58.3,5.9,38,4.9,57.1,2.9,1.9,3,0h0Z"/>
  </g>
  <g>
    <path class="st11" d="M756.4,416c1.1-21.9-2.6-44-10.8-64.5-6.7-16.8-16.5-34.2-12.1-51.7,1-4.1,3.1-8.3,7.1-9.9,5-2.1,11,1.1,13.8,5.6,2.8,4.5,3.3,10,3.7,15.3,2.1,27.8,4.1,55.7,6.2,83.5.7,9.4,1.8,19.7,8.7,26.2,7,6.7,18.3,7.4,27.5,4.2,9.2-3.1,17-9.4,24.5-15.5,19.9-16.1,40.1-31.9,60.5-47.4,6.2-4.7,15.6-9.3,21.1-3.8,3.4,3.3,3,9.1.5,13.1s-6.7,6.7-10.7,9.2c-23.4,14.8-46.8,29.7-70.2,44.5-8.6,5.5-17.6,11.4-21.9,20.5-7.4,15.6,1.7,33.4,9.9,48.5,7.5,13.9,14.4,28.1,20.8,42.6,1.6,3.6,3.2,7.4,3.1,11.3s-2.2,8.1-5.9,9.5c-3.7,1.3-7.9-.5-10.6-3.3s-4.1-6.5-5.6-10c-7.2-17.7-15.6-34.9-25.2-51.5-2.1-3.5-4.3-7.2-7.7-9.5-3.1-2-6.9-2.8-10.7-2.7-10,.2-19.1,6-25.8,13.2-6.7,7.2-11.6,15.8-17.3,23.8-8.2,11.6-18.2,21.9-29.2,31-4,3.3-8.3,6.6-13.5,7.6s-11.3-.7-13.5-5.3c-2.9-5.9,1.5-12.7,5.8-17.7,17.4-20.2,37.5-38.1,59.7-53.3,6.7-4.6,14.4-10.7,13.2-18.6-1.1-6.6-8.1-10.5-14.6-12.9-18.5-6.7-38.4-8.9-57.7-13.2-19.3-4.3-38.8-11.2-52.4-25.2-2.7-2.7-4.9-7.6-1.9-9.9,1.2-.9,2.9-1,4.4-1,36.6.4,67.5,28.7,103.9,32.5,6.1.6,12.6.5,17.8-2.8s8.1-10.4,4.9-15.4"/>
    <path class="st11" d="M757.9,416c.6-12-.3-24.1-2.5-35.9-2.2-11.7-5.8-23-10.4-34s-9.8-21.6-10.9-33.3c-.5-5.2-.2-11,1.9-15.9s2.3-4.1,4.3-5.3,4.2-1.1,6.4-.4c5,1.6,7.7,6.4,8.8,11.2s1.3,11.9,1.7,17.8c.9,12.8,1.9,25.5,2.8,38.3.9,12.6,1.8,25.3,2.8,37.9s2.4,20.1,10.4,26.4c7.6,6,18.5,6.5,27.4,3.5s19.6-11.3,28.4-18.4c9.8-7.9,19.8-15.8,29.7-23.6,5-3.9,10-7.8,15-11.6s9.5-7.6,14.5-11,8.4-5.1,13-4.6,6.9,5.1,6,9.5-5.5,8.4-9.6,11.1-10.6,6.8-16,10.1c-10.8,6.8-21.6,13.7-32.4,20.5-5.5,3.5-10.9,6.9-16.4,10.4s-9.9,6.1-14.6,9.4c-8.4,5.9-16,13.4-17.9,23.9-1.9,11.1,2.1,22.1,6.8,32s5.4,10.3,8.1,15.5,5.7,11,8.4,16.6,5.4,11.4,8,17.1,5.7,11,4.4,16.6-1.6,4.2-3.4,5.4-4.6,1.2-6.8.2c-5-2.2-7-7.7-8.9-12.3-4.6-11.4-9.8-22.6-15.4-33.5-2.8-5.3-5.6-10.6-8.6-15.8s-5.2-9.4-9.8-12.3c-9.1-5.7-21.4-1.9-29.6,3.7s-15.5,15.9-21.7,25.1-13.6,18.6-21.8,26.7-8.3,7.8-12.7,11.4-8.8,6.5-14.1,6.4c-4.3,0-8.9-2.2-9.8-6.8s3-10.3,6.1-13.9c15-17.5,32.1-33.2,50.6-46.8,4.3-3.2,8.9-6.1,13.2-9.4s7.3-6.3,9-10.7.6-8.9-2.2-12.5-7-5.6-11.1-7.3c-11.1-4.5-23.1-6.8-34.8-9s-22.9-4.1-34.1-7.1c-10.2-2.8-20.3-6.6-29.3-12.2s-8.5-5.9-12.1-9.5-3.1-3.4-3.5-5.6,1.4-3.3,3.6-3.4c10.1-.3,20.3,2.3,29.7,5.6s18.9,7.6,28.1,11.8,18.9,8.4,28.7,11.4,9.7,2.6,14.7,3.3,10.6,1.2,15.8,0,8.7-3.6,11.1-7.7,2.7-8.4.4-12.3-3.6-.1-2.6,1.5c2.4,3.9.7,8.8-2.4,11.8s-9.7,4.6-14.8,4.4c-10.3-.3-20.5-3.2-30-6.8-19.5-7.2-37.6-18-57.8-23.2s-10-2.2-15.1-2.6-11.2-1.4-12.4,4,3.1,8.8,6.2,11.7,8.2,6.7,12.8,9.3c19.8,11.6,42.8,14.7,65,19s12,2.4,17.9,4,11,3,16.1,5.4,8.2,4.5,9.6,8.9-1.1,8.8-4.2,12-8.1,6.4-12.3,9.4-9.3,6.8-13.9,10.4c-9.2,7.3-18,15.1-26.3,23.4s-8.1,8.3-11.9,12.6-7.6,8.2-9.6,13.4c-1.9,4.7-1.4,10.1,2.7,13.5s8.3,3.6,12.6,2.7,10-4.6,14.1-8,8.9-7.7,13-11.9c8.2-8.3,15.3-17.5,21.7-27.2,6.2-9.3,12.7-18.9,22.7-24.5s9.8-4.2,15.1-4.1,5.4.7,7.8,2,4.1,3.2,5.6,5.4c3.3,4.8,6,10.1,8.8,15.3s5.9,11.2,8.6,16.9c2.7,5.6,5.2,11.2,7.6,16.8s3.8,10.9,7.2,15.3c3,3.9,8.2,6.9,13.2,5.3,4.6-1.5,7.2-6.3,7.2-11s-3.1-11.7-5.5-16.9-5.2-11.4-8-17.1-5.7-11.4-8.7-17c-2.8-5.2-5.7-10.4-8.2-15.8-4.5-9.8-8.3-21.3-4.8-32s12.9-16.6,21.5-22.1,21.8-13.8,32.8-20.8,22-13.9,33-20.9,20.9-11.5,18.7-23.1-5-7.8-9.6-8-9.4,2.1-13.3,4.6-9.7,7.2-14.4,10.8-10.3,7.9-15.4,11.9c-10,7.8-20,15.7-29.9,23.7s-17.9,15.4-29.1,18.6-20.2,1.5-26.4-6.2-4.6-8.8-5.4-13.6-1.2-11.1-1.6-16.7c-1.9-25.9-3.7-51.9-5.8-77.8-.4-5.3-1.1-11-4.2-15.4s-7.3-6.8-12.1-6.4c-11.3,1-12.8,16.4-12,25,1.1,11.8,6.2,22.7,10.7,33.4,4.7,11.2,8.5,22.7,10.7,34.6,2.1,11.6,2.9,23.4,2.4,35.1s2.9,1.9,3,0h0Z"/>
  </g>
  <g>
    <path class="st4" d="M1212.2,503.3c2.4-15.2-4.5-30.2-12-44s-15.9-27.8-16.7-43.1c0-1.4,0-3,.9-4.2.8-.9,2-1.4,3.3-1.6,6.9-1,11.6,5.9,14.1,11.7,7.2,17.1,12.1,35,14.5,53.2,1,7.7,1.6,15.6,4.2,23,.6,1.8,1.5,3.7,3.1,5,1.4,1.1,3.2,1.6,5,2,7.5,1.6,15.4,1.4,22.8-.7,15.9-4.6,27.3-17,42-24.3,9.3-4.6,19.8-7.1,30.4-7.1,1.7,0,3.5,0,5.1.8,2.8,1.3,4,4.5,3.7,7.4-.8,9.1-12.1,13.7-21.7,16.6-14.4,4.3-28.8,8.6-43.2,12.9-9.4,2.8-20.1,6.8-22.8,15.3-1.2,4-.5,8.2.9,12.2,7.8,22.6,33.6,39,35.8,62.6.2,2.2.2,4.6-1.1,6.6s-3.9,3.3-6.2,2.6c-1.7-.6-2.8-2.1-3.8-3.5-8.8-13.4-16.9-27.1-24.1-41.3-3.1-6.1-6.7-12.9-13.7-15.4-6.9-2.5-14.9.3-20.3,4.8-5.4,4.5-8.9,10.6-12.7,16.3-8.3,12.6-18.9,24-32.1,32.7-2.6,1.7-5.5,3.4-8.8,3.2-6.1-.2-9.7-7.1-8.1-12.5s6.4-9.4,11-13c9.7-7.7,19.4-15.5,29.1-23.2,6.6-5.3,14-12.9,10.7-20.3-3.1-7-13.3-8.3-21.6-9.2-23.1-2.6-45.3-11-63.6-23.9-5.2-3.7-10.6-9.3-8.5-15,1.8-4.7,8.4-6.7,13.8-5.7s10,4.2,14.4,7.2c11.8,7.9,24.4,14.8,37.5,20.7,6.1,2.7,12.6,5.2,19.3,4.8,9.2-.6,17.5-7.4,19-15.7"/>
    <path class="st4" d="M1213.6,503.7c2.9-18.9-7.2-36.1-15.9-52.1-4.3-8-8.6-16.1-11-24.9s-1.1-4.4-1.4-6.6-.8-4.2-.3-6.1,2.8-2.3,4.5-2.2,3,.8,4.3,1.7c2.8,2,4.7,5.1,6.1,8.2s3.6,8.7,5.1,13.1c3.1,9,5.7,18.2,7.6,27.5.9,4.7,1.7,9.4,2.3,14.1s1.1,9.4,2,14.1,1,4.7,1.8,7,1.3,3.9,2.6,5.5c2.7,3.4,7.7,4,11.8,4.5,9,1.1,18.1-.6,26.3-4.4s13.9-8.2,20.5-12.9,14.1-9.3,22.2-12.1,8.9-2.5,13.4-3,4.7-.4,7-.5,4.6-.2,6.3,1.1c2.7,2,2.5,6,1.2,8.7s-4,5-6.6,6.6c-7,4.2-15.3,6-23,8.3s-19.3,5.8-29,8.6-15.2,4.2-21.4,8.8c-2.7,2-5,4.5-6.3,7.7s-1.2,8.8,0,13.1c2.1,6.8,5.9,13.1,10.1,18.8s9,11.5,13.4,17.3c4.1,5.5,8.1,11.3,10.5,17.8s2,6.5,2.2,9.9,0,4.5-1.6,6-3.4,1.7-4.9.5-2.7-3.5-3.9-5.3-2.6-4-3.8-6c-2.6-4.1-5-8.2-7.5-12.4s-4.8-8.5-7.1-12.8-3.8-7.6-5.9-11.4c-3.7-6.6-9.1-12.3-17-12.8-8.2-.5-15.9,4.1-21.1,10.2s-5.1,6.9-7.4,10.4-4.8,7.2-7.5,10.6c-5.3,6.7-11.4,13-18.1,18.3s-7,5.6-10.9,7.4-7.1,1.3-9.5-1.7c-5.2-6.4.8-13.5,5.8-17.7,7.5-6.4,15.4-12.4,23.1-18.5,3.8-3,7.7-5.9,11.3-9.1s6.1-5.7,8-9.3,2.4-7.1.9-10.6-3.7-5.2-6.5-6.6c-6.7-3.3-14.5-3.3-21.8-4.5-8.8-1.3-17.4-3.5-25.7-6.5s-16.2-6.7-23.7-11.2-7.4-4.5-10.6-7.2-6.1-5.7-5.8-9.7,3.6-5.5,6.7-6.2,7.7,0,11.2,1.7,7.5,4.6,11.2,7,7.9,5,12,7.3c8.1,4.7,16.6,9,25.2,12.6s16.9,5.8,25.3,2.2c6.3-2.7,11.7-8.2,13-15s-2.5-2.7-2.9-.8c-1.4,7.3-7.8,12.7-14.9,14.2-9.2,2-18.7-2.9-26.7-6.7s-17-8.7-25.1-13.7-7.7-5.1-11.6-7.5-7.7-4.2-12.1-4.6c-6.9-.6-15.5,3.6-14.2,11.7s3.7,7.3,6.7,9.8,7,5.1,10.7,7.3c15.4,9.3,32.6,15.4,50.3,18.2s8,.9,12,1.6,6.9,1.3,9.9,3,5.1,4.2,5.2,7.5-2.4,7.4-5,10.2-6.9,6.2-10.6,9.1-8,6.4-12,9.6-8.2,6.5-12.2,9.8-6.5,5.2-9,8.6-3.5,6.4-3,10.1,2.1,6.2,4.8,8,7.5,1.9,11,.3,7.6-4.7,11-7.4c6.9-5.5,13.1-11.8,18.6-18.7,2.7-3.4,5.2-6.9,7.5-10.5s4.7-7.4,7.6-10.7c5.3-6,13.6-11,21.8-8.6s11.2,10.2,14.5,16.7c4.5,8.7,9.2,17.2,14.3,25.6,2.5,4.2,5.2,8.3,7.9,12.4s2.3,3.7,4,5,3.7,1.4,5.5.8c8.2-2.7,5.4-14.2,3.2-20.3s-6.3-12.6-10.5-18.3-9.2-11.6-13.6-17.6-8.3-12.2-10.2-19.3-1.3-8.7,1.2-12.5,4.8-4.9,7.8-6.5,6.8-3,10.4-4.1,9.3-2.8,13.9-4.2c9.9-2.9,19.8-5.9,29.7-8.8s14.5-4.4,19.9-9.6,4-5.1,4.4-8.3-.8-7.4-4.1-9.2-4.4-1.2-6.6-1.2-4.7.2-7,.4c-4.6.5-9.2,1.4-13.6,2.8-8.4,2.6-15.9,7-23,12-6.8,4.7-13.3,9.7-20.8,13.2-8.3,4-17.7,5.6-26.9,4.3s-4.6-.7-6.5-1.7-2.8-3-3.5-5c-1.6-4.7-2.5-9.6-3.1-14.5-1.3-9.6-2.5-19.1-4.8-28.5s-5.2-18.9-8.8-28c-2.6-6.6-5.8-15.2-13.3-17.5s-8.2-.4-9.6,3.3-.4,4.1-.2,6,.6,4.4,1.1,6.6c4.2,18.5,16.6,33.6,23.4,51s5.4,17.6,4,26.7,2.6,2.7,2.9.8h0Z"/>
  </g>
  <g>
    <path class="st9" d="M1048.2,814.7c5.1-17.9-2.3-36.8-11.2-53.4-8.8-16.6-19.4-33.1-21-51.6-.3-4-.2-8.2,1.7-11.9s6-6.4,10.2-5.9c6.1.7,9.2,7.3,10.9,12.9,9.2,29.3,15.2,59.6,17.8,90.1.7,8.8,2.3,19.4,10.8,23.1,3.8,1.7,8.2,1.5,12.4.9,31-4.7,53.1-31,81.6-43.7,5.3-2.3,11-4.3,16.8-3.9,5.8.3,11.7,3.4,13.9,8.5,2.6,6.2-1,13.5-6.5,17.6s-12.4,5.9-19.1,7.9c-21.4,6.2-42,15.1-61,26.3-9.9,5.9-20.6,14.5-19.4,25.6.6,5.5,4.1,10.4,7.8,14.7,14.7,17.3,34.1,33.3,37.5,55.4,1.1,7.1-2.1,16.6-9.5,16.3-6-.2-9.1-6.6-11.2-12-8.6-21.9-21.7-42.1-38.2-59.4-1.7-1.8-3.5-3.5-5.8-4.4-4.6-1.8-10.1.5-13.4,4.1s-5,8.2-6.9,12.6c-10.1,23.3-28.9,43.1-52.3,54.8-4.3,2.2-8.9,4.1-13.8,4.2s-10.1-2.2-12-6.5c-2.7-6,1.7-12.7,6.5-17.3,11.9-11.1,27.4-17.9,40.5-27.7,13.1-9.8,24.4-24.6,21.8-40.3-.3-1.9-.9-3.8-2.3-5.1-1.3-1.2-3.1-1.6-4.8-2-17-3.9-34.7-4.8-51.5-9.6-16.7-4.8-33.2-14.8-39.3-30.4-.7-1.8-1.2-3.8-.3-5.5.6-1.2,1.9-1.9,3.1-2.4,10.6-4.6,22.3,3.2,31.8,9.7,10.5,7.2,22,13.2,34,17.8,7.4,2.9,15.5,5.3,23.4,4.1,7.9-1.1,15.7-6.7,16.7-14.3"/>
    <path class="st9" d="M1049.7,815.1c6.2-22.1-5.4-43.8-15.8-62.7-5.3-9.6-10.6-19.4-13.8-29.9s-2.7-10.7-2.7-16.2,1.7-10.2,6.6-12.3,8.2.8,10.4,4.4,3.7,9.1,5.1,13.7c3.4,11.5,6.3,23.1,8.7,34.9s4.3,23.6,5.7,35.5c.6,5.4,1,10.8,1.6,16.2s1.3,8.4,3.1,12.2,4.5,6.8,8.3,8.5c4.9,2.1,10.5,1.5,15.6.5,9.3-1.8,18.1-5.5,26.3-10.1,16.8-9.4,31.4-22.3,48.5-31,8.7-4.4,20.2-9.3,29.3-3.2s5.6,6.9,4.5,11.3-4.6,8.4-8.7,10.8-9.8,4.2-14.9,5.7-11,3.3-16.3,5.2c-10.8,3.8-21.4,8.4-31.6,13.5-5.1,2.6-10.1,5.3-15,8.2s-8.1,5.2-11.6,8.4c-3.3,3.1-6.1,6.7-7.6,11s-1.1,9.4.9,13.7,5.7,8.7,9.1,12.5,6.6,7.3,9.9,10.9c6.5,7.1,13,14.4,17.9,22.7,2.3,4,4.2,8.1,5.4,12.5s1.8,8.2.8,12.3-2.6,6.7-6.1,7.4-7.3-2.6-9.1-5.9-3.8-8.8-5.7-13.1-4.7-9.8-7.4-14.5c-5.3-9.4-11.4-18.3-18.2-26.6s-6.8-8.2-10.6-11.9-3.9-3.4-6.4-4-4.7-.4-6.9.4c-10,3.4-12.4,14.9-16.7,23.3-8.8,17.3-22.4,32.1-38.8,42.5-4.2,2.7-8.6,5.2-13.1,7.2-4.8,2.1-10.3,3.6-15.4,1.7s-7-5.6-5.8-10.2,5.4-9,9.2-12.3c16-13.7,37.1-20.7,50.5-37.3,6-7.4,10.5-16.6,10-26.4s-.4-4.8-1.4-6.9-3.2-3.6-5.6-4.3c-5.6-1.7-11.6-2.5-17.4-3.4-20.8-3.2-43.1-5.3-60.3-18.6s-6.9-6-9.5-9.8-2.4-3.9-3.4-5.9-2.4-4.9-.6-6.7,4.4-2.2,6.6-2.4,4.9.1,7.3.8c5.1,1.5,9.7,4.2,14.1,7.1,4.6,3,9.2,6.2,14,9,4.9,2.9,10,5.5,15.2,7.9,10.1,4.6,21.6,9.7,33,8.2,8.2-1.1,17.1-6.6,18.3-15.5s-.2-1.6-1-1.8-1.7.2-1.8,1c-.6,4.4-3.5,7.9-7.2,10.2s-9.5,3.6-14.7,3.2c-5.9-.4-11.6-2.4-17-4.5s-10.7-4.5-15.9-7.2-10.3-5.7-15.2-8.9-8.9-6.2-13.8-8.6-9.5-4.1-14.6-3.9-11,1.9-11.2,7.2,1.1,4.9,2.1,7,2.2,4,3.5,5.9c2.7,3.8,6,7.1,9.7,9.9,7.6,5.9,16.6,10,25.8,12.6s23.4,4.7,35.2,6.6,11.9,1.8,17.6,3.4,2.4.8,3.2,1.7,1.2,2.3,1.4,3.5c.5,2.3.5,4.8.3,7.2-.9,10-7,18.8-14,25.7-7.6,7.5-17,12.9-26.1,18.4-4.6,2.8-9.2,5.7-13.6,8.9s-8.6,6.4-11.8,10.6-5.5,8.7-4.1,13.6,5.3,7.4,9.7,8.5,10.7-.2,15.6-2.3,9.2-4.6,13.5-7.4c8.4-5.4,16.1-11.8,22.8-19.2,6.6-7.2,12.3-15.3,16.8-23.9,2.4-4.5,4-9.4,6.4-13.9s5.8-8.3,10.9-9c5.5-.7,9.1,4.1,12.3,7.7s7.2,8.3,10.6,12.7c6.6,8.7,12.4,18,17.4,27.7s4.7,9.8,6.7,14.8,3.3,8.1,6.6,10.9,7.4,3.4,11,1.4,5.2-5.6,5.9-9.2.3-8.6-.8-12.8c-1.2-4.5-3.1-8.9-5.4-13-4.8-8.6-11.4-16.1-18-23.3s-6.8-7.3-10.1-11-7.1-7.8-9.3-12.6-1.9-9.1.2-13.4,5.5-7.5,9.2-10.4,8.6-5.8,13.1-8.3,10.2-5.5,15.5-8c10.5-5,21.4-9.3,32.5-12.9s10.8-3.1,16.1-4.9,9.9-4,13.6-7.8,5.5-7.9,5.4-12.5-2.8-8.6-6.7-11.1c-9.5-6-21-1.8-30.2,2.6-8.8,4.3-16.9,9.7-24.9,15.3-15.7,10.9-31.7,22.8-50.9,26.4-5,.9-10.7,1.6-15.2-1.3s-5.3-5.9-6.5-9.7-1.6-8.8-2-13.3-1.2-12.1-2-18.1c-3.2-24-8.3-47.9-15.8-70.9-1.3-4-3.1-8.2-6.4-10.9-3.6-2.9-8.5-3.2-12.4-.8-9.6,5.9-7.1,20-4.6,29.1,5.9,21.9,21.1,39.9,28.2,61.3,3.4,10.2,4.9,21.2,1.9,31.7s2.4,2.7,2.9.8h0Z"/>
  </g>
  <g>
    <path class="st6" d="M957.8,94.8c-1-32.3-29.7-58.7-31.2-91-.3-6,1.4-13.4,7.2-15.2,4.1-1.3,8.7,1.2,11.2,4.7s3.5,7.9,4.4,12.1c4.8,22.9,9.7,45.8,14.5,68.7,1.8,8.8,4.4,18.5,12,23.1,6.2,3.8,14.2,3.1,20.8,0s12.1-7.9,17.5-12.6c10.7-9.2,22.1-17.8,34.7-24.2,4-2.1,8.4-3.9,12.9-3.8s9.3,2.7,10.6,7.1c1.9,6.5-4.2,12.4-9.9,16.1-12.6,8.2-26.4,14.7-40.7,19.1-12.5,3.8-27.7,8-31.6,20.5-2.3,7.2.2,15.1,4.2,21.4s9.6,11.5,14.4,17.3c7.8,9.4,13.8,20.4,17.3,32.1,1.7,5.7,2.1,13.3-3.3,15.9-6.2,3-12.2-4-15.5-10-5.1-9.4-10.3-18.8-15.4-28.1-2.8-5.1-5.7-10.4-9.9-14.4s-10.2-6.7-16-5.5c-7.9,1.5-12.7,9.2-17,16-8,12.8-17,24.9-27,36.2-4.1,4.7-10.6,9.6-16,6.4-3.1-1.8-4.3-5.7-4.2-9.3.3-9.5,7.8-17,14.9-23.4,7.6-6.9,15.3-13.9,22.9-20.8,4.8-4.4,10.1-9.9,9.3-16.4-.6-4.8-4.5-8.6-8.9-10.5s-9.3-2.4-14-3.1c-20.4-3-40-10.9-56.9-22.7-3.2-2.2-6.4-4.7-8.4-8.1s-2.5-7.9-.3-11.1c4.3-6.3,14-3.7,20.9-.5,16.9,7.8,34.1,14.7,51.6,20.8,4.6,1.6,9.5,3.2,14.4,2.3s9.5-4.9,9.2-9.8"/>
    <path class="st6" d="M959.3,94.8c-.5-15.5-7.2-29.8-14.1-43.4-6.9-13.6-14.6-27.5-16.7-42.8-.5-3.4-.7-7,0-10.5s1.9-6.3,4.8-7.7,7.3.2,9.7,2.8,3.9,7.7,4.7,11.8c4.3,20,8.5,40,12.7,60,1.7,8.1,2.9,16.6,6.5,24.1s3.8,6.2,6.7,8.4,7.1,3.6,11.1,3.8c8.9.4,16.7-4.2,23.4-9.5s13.9-11.9,21.3-17.4,15.3-10.8,23.8-14.3,8.4-2.7,12.5-1.1,5.9,4.3,5.5,8-3.5,7-6.3,9.3-7.4,5-11.2,7.2c-8.1,4.6-16.5,8.5-25.2,11.6s-14.7,4.4-21.8,7.3-12.4,6.2-15.9,12.1c-4.3,7.2-3.3,15.9.2,23.2s10.8,14.3,16.5,21.1,10.5,14.6,14,22.8,3.2,7.8,3.9,11.8.8,6.6-.9,9.2-5.6,3.1-8.4,1.4-5.6-5.5-7.5-8.8c-4.9-8.9-9.8-17.9-14.7-26.8s-8.4-15.7-16.2-19.8-7.8-2.8-11.9-2.1-6.8,2.7-9.4,5.2-5,5.9-7.1,9.1-4.8,7.7-7.4,11.4c-5.3,7.8-11.1,15.4-17.2,22.6s-5.5,6.8-9.1,9.2-7.3,3.4-10.1.3-2.5-7.2-1.6-10.7,3.2-7.3,5.7-10.4,5.7-5.9,8.7-8.7,7.6-6.9,11.5-10.4,7.5-6.8,11.2-10.2,5.9-5.7,7.8-9.3,2.4-7.5.8-11.1-4.4-6.4-7.8-8.1-8.5-2.8-12.9-3.4-8.9-1.4-13.4-2.5c-8.7-2.1-17.2-5-25.3-8.7s-16.2-8.2-23.1-13.7-6.2-5.8-6.6-10c-.3-3.5,1.5-6.8,5-7.8s6.6-.2,9.7.7,7.7,3.2,11.5,4.8c9,4,18,7.8,27.2,11.3s9.3,3.5,14,5.2,9.3,3.5,14.1,4.1,8,0,11.3-2.5,4.9-5.2,4.8-8.9-3.1-1.9-3,0c.1,3.7-2.9,6.7-6.2,7.9s-9.7.1-14.1-1.4c-9.6-3.2-19-6.8-28.3-10.6s-9.2-3.8-13.8-5.8-8.5-4-12.9-5.7c-5.8-2.4-14.5-4.7-19.5.6s-3.3,7.1-2.2,10.9,4.3,7.3,7.6,9.8c7.2,5.5,15.2,10.1,23.4,13.9s17,6.8,25.8,8.9,9,1.8,13.6,2.5,9.2,1.4,13.1,3.8,5.9,5.2,5.9,9.1-2.5,7.6-5.1,10.5-7,6.6-10.5,9.8-7.8,7.1-11.6,10.6c-6.3,5.7-13.4,11.4-17.4,19.1-3.2,6.2-4.6,17.2,3.4,20.6s7.8.2,11-2,6.5-6,9.4-9.4c6.3-7.4,12.1-15.1,17.6-23.1s5-7.6,7.4-11.5,4.3-6.5,7.2-9.2,6.4-4.3,10.3-4.2,8.2,2.2,11.3,5,5.8,6.8,8.1,10.7,4.7,8.6,7.1,12.8,5,9.1,7.5,13.6,4.2,8,7.1,11.4,5.7,5.4,9.5,5.4,6.6-2.1,7.9-5.3c3-7-.5-15.5-3.2-22-3.5-8.4-8.2-16.2-13.9-23.2-5.7-7-12.9-13.2-16.9-21.5s-4.2-16.1,1.3-22.6,11.3-8.2,17.8-10.5,16.1-5,23.9-8.2,17-7.9,25-12.9,14.6-10.3,12.3-18.7c-1-3.7-4.1-6.2-7.5-7.5s-8.5-.8-12.4.6-8.6,4-12.7,6.4-8,5-11.9,7.8c-7.6,5.5-14.6,11.7-21.9,17.7-6.7,5.5-14.7,10.6-23.8,9.8s-7.6-2.1-10.3-4.9-4.2-6.1-5.4-9.6-2.1-7.7-2.9-11.5-2.2-10.2-3.2-15.3c-2.1-10.1-4.3-20.3-6.4-30.4s-2.2-10.2-3.2-15.3-1.7-9.4-3.3-13.8-3.9-7.4-7.7-9.3-7.4-1.7-10.5.5c-5.9,4.3-5.9,12.9-5.1,19.3s3.2,15.1,6.2,22.2c6.1,14.6,14.7,28,20.1,42.8,2.6,7,4.4,14.4,4.6,21.9s3.1,1.9,3,0h0Z"/>
  </g>
  <g>
    <path class="st1" d="M223.5,288.1c-3.5-44.5-33.6-80.9-50.3-122-8-19.7-13-41.8-7.7-62.5.8-3.2,2-6.5,4.4-8.7,4.6-4.1,12-2.3,16.2,2.2s6.1,10.8,7.8,16.8c13.6,48.3,27.2,96.6,41,144.8,2.6,9.2,5.4,18.7,11.2,26.3,11.7,15.3,33.2,19,51.3,13.9,18.1-5.1,33.5-17.1,48.4-29,20.4-16.2,40.9-32.4,61.3-48.6,6.7-5.3,13.7-10.8,21.9-12.6,8.2-1.9,18,.9,22,8.6,4,7.9.7,17.8-4.2,25.1-10.1,15.1-26.2,24.6-42.1,32.3-29.6,14.4-60.8,24.9-89.9,40.4-12.2,6.5-25.1,15.2-28.5,29.1-4.7,19.1,10.2,36.6,22.5,51.6,16.9,20.6,30.9,44,41.2,69,2.8,6.8,5.4,14.1,4.6,21.5-.8,7.4-6.1,14.8-13.2,15.1-8.2.4-14.1-7.8-18.4-15.1-12-20.3-24-40.7-36-61-5.9-9.9-11.9-20.1-20.5-27.5-8.6-7.4-20.5-11.7-31.1-8.2-9.4,3.1-16.2,11.7-22.5,19.7-14,18.1-28.4,35.9-43,53.4-10.1,12.1-20.8,24.4-34.8,31.1-6.4,3.1-13.7,4.8-20.6,3.3-6.9-1.5-13.3-7-14.7-14.2-2-9.8,5-18.9,12.3-25.4,26.7-23.8,63.4-34.6,85.9-62.9,7.4-9.4,12.8-23.8,5.4-33.2-4.5-5.7-12-7.3-19-8.5-29.5-4.7-59.4-6.7-88.4-13.9-25.3-6.2-52.2-18.9-61.9-44.1-2.2-5.7-3.3-12.6,0-17.8,5.1-8.2,16.8-7,25.7-4.1,31.4,10.3,59.7,29.1,90.6,41,14,5.4,29.3,9.4,43.8,5.7s27.7-17.1,27.1-32.8"/>
    <path class="st1" d="M225,288.1c-1.3-15.9-6-31.2-12.2-45.8s-14.2-28.8-21.7-42.9-15.4-29.3-20.5-45-8.1-34.9-3.3-51.8c1-3.4,2.6-7,6.3-8.1s6.7,0,9.4,1.8,5.1,5.6,6.6,8.9,2.6,7.9,3.7,11.9c5.3,18.7,10.5,37.4,15.8,56.1s10.6,37.4,15.9,56.1c2.6,9.3,5.3,18.5,7.9,27.8s4.6,16.4,8.7,23.8,8.7,11.6,15,15.3,12.8,5.4,19.6,6c15.4,1.5,30.2-3.8,43.3-11.6s14.1-9.4,20.8-14.7,14.7-11.6,22-17.4c15.2-12.1,30.4-24.1,45.7-36.2,6.4-5.1,13.1-10.4,21.2-12.3s13.4,0,17.9,4.6,4.5,14.3,1.5,21-8.6,13.4-14.4,18.6c-12.2,10.9-27.3,17.9-42.1,24.6s-33.9,14.3-50.7,21.7-16.8,7.6-24.9,11.8-13.2,7.1-18.9,12-10,10.2-12.3,17-2,15,.4,22.1c5.2,15.4,17.2,27.2,26.9,39.8s19.6,28.3,27.4,43.6,7.8,15.8,10.6,24.1,4,16.5-.9,23.6-4.6,4.8-7.9,5.3-6.5-1-9-3.1-4.9-5.2-6.9-8.2-4.6-7.7-6.9-11.6c-9.9-16.7-19.7-33.4-29.6-50.1-8.3-14-17-29.9-32.6-36.8-7-3.2-15.1-4.3-22.6-1.7s-12.9,8-17.7,13.7-11.1,14.1-16.7,21.1-11.9,14.9-18,22.3-11.7,14.3-17.7,21.2-11,12.3-17.4,17.6c-11.1,9.1-31.1,18.9-42.7,5.1-2.4-2.8-3.6-6.4-3.6-10.1s1.5-7.6,3.5-10.8c4.1-6.6,10.4-11.7,16.5-16.4,12-9.1,25.2-16.3,38-24.1s25.1-16,35.2-26.9,9.6-11.5,12.2-18.6,3.1-14.3-.7-20.5-11.4-8.9-18.5-10.2-18.2-2.7-27.2-3.9c-18.7-2.4-37.4-4.6-55.8-8.6s-28.6-7.3-41.3-14.8-22.1-16.8-27.2-29.7-4-15.7,2.6-20.2,12.4-2.6,18.2-1c8.1,2.2,16,5.6,23.7,9s16,7.5,23.9,11.5c15.7,7.9,31.3,16.1,47.8,22.2s34,9.9,49.8,2.3,21.5-17.9,21-31.6-3.1-1.9-3,0c.5,14.3-10.8,26.6-23.9,30.8s-35.9-1.2-51.8-7.8c-16.5-6.9-32.2-15.5-48.2-23.3s-16-7.6-24.3-10.9-14.4-5.8-22-6.3-13,1.1-16.7,6.7-2,15.5,1,22.3c5.7,12.8,16.4,22.6,28.5,29.4s27.5,11.7,42.1,14.7,37.5,6.1,56.4,8.6,18.2,2.2,27.2,4,14.4,4.5,16.6,12-.5,14.7-4,20.8-9,12.1-14.5,17.1c-11.1,10.2-24.2,17.9-37,25.5s-26.1,15.5-37.5,25.5-11.6,11.6-13.2,19.4,1.5,14.8,7.6,19.4c14.1,10.5,32.8.4,44.3-9.2s12-11.6,17.4-17.9,12-14.4,17.9-21.6,12.1-15,18.1-22.5c5.5-7,10.7-14.2,16.6-20.9s11.1-11,18.9-12.4,15.8,1.4,22.3,5.7,12.4,11.4,16.9,18.3,9.5,15.6,14.1,23.4c9.9,16.7,19.6,33.6,29.7,50.2s8.1,12.6,15,14.6,13.6-2.4,16.7-8.6,2.3-16.6-.5-24.4-6.8-16.3-10.7-24.2c-7.8-15.5-17.1-30.3-27.8-44.1s-10.5-12.7-15.4-19.4-9-13.2-11.2-20.9-1.8-15.1,1.5-21.9,8.6-11.6,14.5-15.7,13.9-8.3,21.2-11.8,16.8-7.8,25.3-11.5c17-7.3,34.3-14.1,51.1-22.1,14.4-6.8,29-14.6,39.9-26.5s10.1-12.6,11.9-20.4.2-15.1-5.9-19.8-12.5-5.3-18.9-3.9-15.1,7-21.5,12.1c-15.3,12.1-30.6,24.2-45.9,36.4s-14.8,11.8-22.3,17.6-13.7,10.4-21.1,14.8c-13.2,7.8-28.2,13.1-43.7,10.9s-13.5-3.4-19.1-7.4-10.7-10.9-13.7-18-5.6-17.1-8-25.7-5.4-18.8-8.1-28.3c-5.4-18.9-10.7-37.7-16.1-56.6s-5.3-18.9-8-28.3-2.7-9.4-4-14.2-2.3-8.7-3.7-12.9c-2.4-7-6.4-14.3-14.1-16.2s-6.8-.5-9.6,1.4-4.7,6-5.7,9.6c-4.6,17.1-2,35.4,3.3,52,5,15.9,12.7,30.8,20.5,45.4,7.6,14.3,15.6,28.5,22.1,43.4s10.8,29.2,12,44.6,3.2,1.9,3,0h0Z"/>
  </g>
</svg>