<?xml version="1.0" encoding="UTF-8"?>
<svg id="Lag_1" xmlns="http://www.w3.org/2000/svg" version="1.1" viewBox="0 0 1280 1024">
  <!-- Generator: Adobe Illustrator 30.1.0, SVG Export Plug-In . SVG Version: 2.1.1 Build 136)  -->
  <defs>
    <style>
      .st0 {
        fill: #fffbf3;
      }
    </style>
  </defs>
  <g>
    <path d="M286.2,351.1c14.4,0,28.7-.1,43.1-.2,4.9-19.8-3-41.6-18.9-55.6-15.9-14-38.8-20.2-60.5-17.9-22.1,2.4-43.3,13.7-54.9,31.3-11.7,17.6-12.7,41.3-1,58.9,9.8,14.8,27,24,43.8,31.7,11.8,5.4,24.3,10.6,33,19.8,8.7,9.2,12.5,23.8,4.9,33.8-6.9,9.1-21.4,11.3-32.5,7-11.1-4.3-19-13.8-24-24-15,2.1-29.9,4.1-44.9,6.2,2.9,26.5,8.9,57.3,34.4,69.4,10.5,5,22.7,5.7,34.5,5.6,27.5-.4,58-7,73.2-28.4,12.2-17,11.5-39.1,10-59.5-.6-8.3-1.4-16.8-5.2-24.2-5.8-11.1-17.6-18.4-29.6-23.7-12-5.4-24.8-9.5-35.3-17-10.5-7.5-18.7-19.6-16.4-31.8s18.3-21.6,29.6-15.1c11.5,6.7,10.2,22.6,16.6,33.8"/>
    <path d="M286.2,352.6c14.4,0,28.7-.1,43.1-.2s1.3-.5,1.4-1.1c3.5-14.3.6-29.4-6.9-42s-20.1-22.6-34.1-28.1c-14.4-5.7-30.5-7.1-45.7-4.4-14.5,2.6-28.6,9-39.6,18.8s-18.6,23.7-20,38.7,3.6,30.2,14,41.5,24.9,18.7,38.9,25,30.1,12.6,37.5,26.7,4.5,13.5,2.1,20-8.1,10.3-14.4,12-13.6,1.3-19.8-1.3-12.6-8-16.9-13.9-3.9-5.9-5.4-9.1-1.1-.8-1.7-.7c-15,2.1-29.9,4.1-44.9,6.2s-1.2.9-1.1,1.4c1.6,14.1,3.7,28.4,9.2,41.6s6.2,12.5,10.8,17.7,10.7,9.6,17.3,12.4,17.8,4.6,26.9,4.8,16.3-.2,24.3-1.2c15-1.9,30.3-5.9,42.9-14.7s11.4-9.6,15.3-16,7-15.4,8.2-23.7,1.2-17,.8-25.5-.7-18.2-3.3-26.8c-5.1-16.7-20.9-25.8-36-32.2s-34.4-12.6-43.9-28.1-6-14.7-2.7-21.6,8.5-10.3,14.8-11.7,12.9,1,16.7,6.5,4.9,12.5,6.9,18.9,2.2,6.4,3.8,9.3,3.6.2,2.6-1.5c-6.4-11.2-5-28.6-18.3-34.9s-28.2,3.6-30.7,16.4,1.2,16,5.8,22.4,12,12.2,19.6,16.3c15.3,8.2,33,12.2,46.4,23.5s5.8,5.4,7.9,8.7,4,8,5,12.4,1.4,9.1,1.7,13.8.6,8.6.7,12.9c.5,16.5-1.1,34.1-11.6,47.6s-23.3,18.5-37.6,22.1-15.4,3-23.2,3.6c-8.5.6-17.1.8-25.6-.2-8.5-.9-16.9-3.3-24-8.1s-10.3-8.9-13.9-14.7c-7.5-12-10.6-26.2-12.7-40s-.9-6.8-1.3-10.2l-1.1,1.4c15-2.1,29.9-4.1,44.9-6.2l-1.7-.7c6.2,12.8,17.3,24.4,32,26.5s28.4-4.2,31-18.4-.6-14.1-4.1-20.1-9.7-11.5-16.1-15.5-14.2-7.5-21.6-10.9-14.3-6.7-21-10.8c-13-7.9-24.5-18.6-28.9-33.6s-1.7-30.4,6.2-43.1c7.7-12.4,20.2-21.6,33.7-26.8s29.8-7,44.8-4.2,29.2,9.5,39.7,20.6,16,25,15.7,39.7-.6,7-1.4,10.4l1.4-1.1c-14.4,0-28.7.1-43.1.2s-1.9,3,0,3h0Z"/>
  </g>
  <g>
    <path d="M531.2,509.4l1.8-224c43.3,5.9,87.5,5.2,130.6-1.9,2.8-.5,6-.8,8,1,1.5,1.4,1.8,3.5,2,5.5,1.3,14.1,2.7,28.2,4,42.3.2,1.7.3,3.4-.6,4.9-1.6,2.7-5.5,3-8.8,3-27.3-.3-54.5-.5-81.8-.8-.4,14.8.5,29.6,2.7,44.3,23.6-.8,47.2-1.6,70.7-2.5.9,17,1.8,34.1,2.7,51.1-23.2.7-46.5-1.6-69-6.5,1.1,28.3,0,56.7-3,84.9-19,4.9-39.5,4.7-58.4-.7"/>
    <path d="M532.7,509.4c.2-29.2.5-58.3.7-87.5s.5-58.3.7-87.5.3-32.7.4-49l-1.9,1.4c18.4,2.5,37,3.8,55.5,4s37.2-.8,55.7-3,9.3-1.2,13.9-1.9,4.4-.7,6.6-1,3.6-.5,5.2,0,2.3,2.5,2.5,4.3.4,4.5.6,6.7c.4,4.7.9,9.5,1.3,14.2s.9,9.6,1.4,14.4.4,4.6.7,7,.6,4.2-.8,5.5c-2.4,2.3-7.2,1.5-10.2,1.5-4.7,0-9.5,0-14.2-.1-19.1-.2-38.2-.4-57.3-.6s-4.7,0-7,0-1.5.7-1.5,1.5c-.4,14.9.5,29.9,2.8,44.7s.8,1.1,1.4,1.1c18.3-.6,36.7-1.3,55-1.9,5.2-.2,10.5-.4,15.7-.5l-1.5-1.5c.9,17,1.8,34.1,2.7,51.1l1.5-1.5c-17.9.5-35.9-.7-53.6-3.6s-10-1.8-15-2.9-1.9.4-1.9,1.4c.8,22.1.4,44.2-1.3,66.2s-1.1,12.5-1.7,18.7l1.1-1.4c-18.8,4.8-38.8,4.6-57.6-.7-1.9-.5-2.7,2.4-.8,2.9,15,4.2,30.7,5.3,46.1,3.2s8.8-1.4,13-2.5,1-.8,1.1-1.4c2.4-22,3.5-44,3.4-66.1s-.2-12.5-.4-18.8l-1.9,1.4c17.7,3.9,35.8,6.1,53.9,6.6s10.4.1,15.6,0,1.5-.7,1.5-1.5c-.9-17-1.8-34.1-2.7-51.1s-.7-1.5-1.5-1.5c-18.3.6-36.7,1.3-55,1.9-5.2.2-10.5.4-15.7.5l1.4,1.1c-2.2-14.5-3.1-29.2-2.7-43.9l-1.5,1.5c19.8.2,39.6.4,59.3.6s9.8,0,14.7.1,5,0,7.5,0,3.6,0,5.4-.4,3.1-1,4.2-2.2,1.8-3.5,1.7-5.4c-.2-4.9-.9-9.8-1.4-14.7-.9-9.7-1.7-19.5-2.8-29.2s-.5-3.8-1.6-5.3-2.8-2.3-4.6-2.5-3.8,0-5.6.3-4.6.7-7,1.1c-19.1,2.8-38.5,4.4-57.8,4.6-19.2.3-38.5-.7-57.6-2.9s-4.9-.6-7.3-.9-1.9.4-1.9,1.4c-.2,29.2-.5,58.3-.7,87.5s-.5,58.3-.7,87.5c-.1,16.3-.3,32.7-.4,49s3,1.9,3,0h0Z"/>
  </g>
  <g>
    <path d="M714.2,295.2c-3,75.2-6,150.4-9.1,225.6,14.5.1,29.1.2,43.6.3,1.7,0,3.5,0,5-.8,2.8-1.6,3-5.3,2.9-8.4-3.5-74.6-1.1-149.5,7.2-223.7-16.6.2-33.2.5-49.8.7,0,3.2-.1,6.3-.2,9.5"/>
    <path d="M712.7,295.2c-1.2,29.5-2.4,58.9-3.6,88.4-1.2,29.3-2.4,58.6-3.5,87.9s-1.3,32.9-2,49.4.7,1.5,1.5,1.5c9.5,0,19,.1,28.5.2h14.1c3.7.1,7.7,0,9.4-3.9s.9-7.2.7-10.7-.4-9.6-.6-14.4c-.3-9.4-.5-18.8-.7-28.2-.3-18.9-.2-37.8.3-56.8.5-18.9,1.4-37.8,2.6-56.7,1.3-19,2.9-37.9,4.9-56.8.2-2.3.5-4.6.8-6.9s-.8-1.5-1.5-1.5c-16.6.2-33.2.5-49.8.7s-1.5.7-1.5,1.5c0,3.2-.1,6.3-.2,9.5s3,1.9,3,0c0-3.2.1-6.3.2-9.5l-1.5,1.5c16.6-.2,33.2-.5,49.8-.7l-1.5-1.5c-2,18.4-3.7,36.8-5.1,55.3-1.3,18.5-2.3,37.1-2.9,55.7-.6,18.5-.8,37-.7,55.5.1,18.6.6,37.2,1.5,55.7s.7,7-2.1,8.6-4.3.6-6.2.6h-6.9c-9.3-.1-18.5-.2-27.8-.3h-6.9c.5.4,1,.9,1.5,1.4,1.2-29.5,2.4-58.9,3.6-88.4s2.4-58.6,3.5-87.9c.7-16.5,1.3-32.9,2-49.4,0-1.9-2.9-1.9-3,0h0Z"/>
  </g>
  <g>
    <path d="M797.6,293c3.8,76.2,3.6,152.5-.7,228.7,36,1.8,72.1,3.5,108.1,5.3,2.2-17.2,4.4-34.4,6.7-51.6-21.1-.9-42.1-3.7-62.6-8.3-.7-16.7-.5-33.4.6-50,18.5.5,37.1,1,55.6,1.4,1.5-13.2,3-26.5,4.5-39.7-17.3-2-34.7-4-52-6.1-2-.2-4.3-.6-5.7-2-1.2-1.3-1.5-3.1-1.7-4.8-.9-9.7.2-19.6,3.1-28.9,18.9,3.8,38.1,6,57.4,6.4,2.3,0,4.9,0,6.4-1.6,1.3-1.4,1.4-3.4,1.4-5.3,0-14.4-.2-28.9-.3-43.3-39.5.6-79.1,1.3-118.6,1.9"/>
    <path d="M796.1,293c1.5,29.7,2.4,59.4,2.6,89.2.3,29.7-.1,59.5-1.1,89.2-.6,16.8-1.3,33.5-2.3,50.3s.7,1.5,1.5,1.5c28.1,1.4,56.1,2.7,84.2,4.1,8,.4,15.9.8,23.9,1.2s1.4-.7,1.5-1.5c2.2-17.2,4.4-34.4,6.7-51.6s-.8-1.5-1.5-1.5c-16.3-.7-32.6-2.5-48.6-5.5s-9-1.8-13.5-2.8l1.1,1.4c-.7-16.7-.5-33.4.6-50l-1.5,1.5c18.5.5,37.1,1,55.6,1.4s1.4-.7,1.5-1.5c1.5-13.2,3-26.5,4.5-39.7s-.8-1.4-1.5-1.5c-12.2-1.4-24.4-2.9-36.7-4.3s-6.3-.7-9.4-1.1-5.6-.4-8.2-1.1-2.1-.7-2.7-1.7-.7-2.2-.8-3.4c-.3-2.9-.3-5.8-.2-8.7.2-6.7,1.4-13.2,3.3-19.6l-1.8,1c15.4,3.1,31,5.1,46.6,6s7.7.4,11.5.5,6.1-.3,7.8-2.9,1.1-6.8,1.1-9.9,0-8,0-12c0-9-.1-17.9-.2-26.9s-.7-1.5-1.5-1.5c-30.9.5-61.8,1-92.7,1.5s-17.3.3-25.9.4-1.9,3,0,3c30.9-.5,61.8-1,92.7-1.5,8.6-.1,17.3-.3,25.9-.4l-1.5-1.5c0,7.6,0,15.3.1,22.9s0,7.3,0,11,.3,7.3,0,11-.4,2.6-1.7,3.3-2.8.6-4.2.6c-3.5,0-7.1-.2-10.6-.4-7.4-.4-14.9-1.1-22.3-2s-16.4-2.4-24.5-4-1.6.2-1.8,1c-1.9,6-3,12.2-3.4,18.5s-.2,6.3,0,9.4.3,5.3,2.2,7.2,4.5,2.2,7,2.4,6.4.8,9.7,1.1c6.6.8,13.2,1.5,19.8,2.3s14.9,1.7,22.3,2.6l-1.5-1.5c-1.5,13.2-3,26.5-4.5,39.7l1.5-1.5c-18.5-.5-37.1-1-55.6-1.4s-1.4.7-1.5,1.5c-1.1,16.6-1.3,33.3-.6,50s.4,1.3,1.1,1.4c16.1,3.6,32.4,6.2,48.9,7.5,4.7.4,9.4.7,14.1.9l-1.5-1.5c-2.2,17.2-4.4,34.4-6.7,51.6l1.5-1.5c-28.1-1.4-56.1-2.7-84.2-4.1-8-.4-15.9-.8-23.9-1.2l1.5,1.5c1.7-29.7,2.7-59.4,3.2-89.2.4-29.7.3-59.5-.5-89.2-.4-16.8-1.1-33.5-1.9-50.3s-3.1-1.9-3,0h0Z"/>
  </g>
  <g>
    <path d="M122.8,515.7c34.1-2.6,68.1,21.8,74,53.2s-17.1,65.1-50.1,73.4c4.9,32.5,9.8,65.1,14.7,97.6.3,1.9.5,4-.8,5.5-1.3,1.4-3.5,1.6-5.5,1.6-14.2.3-28.5-.9-42.4-3.5-6.4-74-12.7-148.1-19.1-222.1,10.2-1.6,20.5-3.1,30.7-4.7"/>
    <path d="M122.8,517.2c13.1-1,26.2,2,37.8,8.1,11.2,5.9,21.1,14.6,27.6,25.5s9.1,22.7,7.6,34.9-6.8,23.4-14.5,32.7c-8,9.6-18.5,17.2-30.4,21.1-1.5.5-3.1,1-4.6,1.4s-1.2,1.1-1,1.8c3,19.8,6,39.6,9,59.4s3,19.9,4.5,29.8l1.1,7.4c.2,1.6.9,4.1-.6,5.3s-4,.9-5.7,1c-2.5,0-4.9,0-7.4,0-11.1-.2-22.3-1.4-33.2-3.4l1.1,1.4c-2.5-28.9-5-57.8-7.5-86.7-2.5-28.9-5-57.8-7.5-86.7-1.4-16.3-2.8-32.5-4.2-48.8l-1.1,1.4c10.2-1.6,20.5-3.1,30.7-4.7s1.1-3.2-.8-2.9c-10.2,1.6-20.5,3.1-30.7,4.7s-1.2.9-1.1,1.4c2.5,28.9,5,57.8,7.5,86.7s5,57.8,7.5,86.7c1.4,16.3,2.8,32.5,4.2,48.8s.4,1.3,1.1,1.4c10.2,1.9,20.5,3,30.8,3.4,2.6,0,5.2.1,7.9.1s4.6,0,6.9-.3,3.8-1.2,4.7-3,.7-3.9.4-5.8c-3-20.8-6.3-41.6-9.4-62.4-1.8-11.8-3.5-23.5-5.3-35.3l-1,1.8c12.8-3.3,24.4-10.3,33.4-19.9s15-20.8,17.5-33.2.9-25.5-4.8-37-15.4-21.5-26.6-28.4c-11.6-7.1-25.1-11.2-38.7-11.3s-3.4,0-5.1.2-1.9,3.1,0,3h0Z"/>
  </g>
  <g>
    <path class="st0" d="M143.5,603.7c-2.1-16.3-4.3-32.6-6.4-48.9-.1-1-.2-2,.2-2.9,1.2-2.4,5-2,7.6-.8,11.6,5.2,19.6,16.8,19.6,28.8,0,12-7.8,23.7-19.4,29-.5-2.2-1-4.3-1.5-6.5"/>
    <path d="M145,603.7l-4.1-30.9-2-15.6c-.2-1.4-1.2-4.5.4-5.4s3.3-.1,4.6.4c7,2.7,12.8,8.7,16.1,15.3s3.9,14.4,1.4,21.5-9.2,14.9-17,18.5l2.2.9c-.5-2.2-1-4.3-1.5-6.5s-3.3-1.1-2.9.8,1,4.3,1.5,6.5,1.4,1.3,2.2.9c7.7-3.6,14.1-10,17.4-17.7s3.5-16.2.4-23.9c-3.2-7.8-9.2-14.4-16.7-18.1s-7.6-3.1-10.3-.3-1.1,4.6-.8,6.8l1.1,8.4,5,38.3c.1.8.6,1.5,1.5,1.5s1.6-.7,1.5-1.5h0Z"/>
  </g>
  <g>
    <path d="M509,579.4c2.4,46.1,4.8,92.2,7.2,138.3,12,.3,24.1.6,36.1.9-1.7-45.2-3.4-90.4-5-135.7,11.2,1.7,22.3,3.4,33.5,5.2,2.4.4,5.1.6,6.8-1,1.4-1.3,1.5-3.4,1.5-5.2,0-10.2,0-20.4,0-30.6-35.7-7-72.6-9-109-5.8-.6,10.1-.2,20.3,1.1,30.3.3,1.9.7,4.2,2.6,5.2,1.3.7,2.9.6,4.4.4,6.1-.6,12.2-1.3,18.3-1.9"/>
    <path d="M507.5,579.4c.9,18,1.9,35.9,2.8,53.9s1.9,35.9,2.8,53.9c.5,10.1,1.1,20.3,1.6,30.4s.7,1.5,1.5,1.5c12,.3,24.1.6,36.1.9s1.5-.7,1.5-1.5c-.7-17.6-1.3-35.2-2-52.9s-1.3-35.2-2-52.9-.7-19.9-1.1-29.9l-1.9,1.4c11,1.7,22,3.4,33,5.1s9,.8,10.3-4,.4-4.7.3-7,0-5.6,0-8.4c0-6.2,0-12.5,0-18.7s-.5-1.3-1.1-1.4c-28-5.5-56.6-7.9-85.2-7.2-8.1.2-16.1.7-24.2,1.4s-1.5.6-1.5,1.5c-.5,8.5-.3,17,.6,25.4s.4,4,.7,5.9.7,2.9,1.6,4.1c2.5,3.1,7,1.9,10.4,1.6,4.9-.5,9.7-1,14.6-1.5s1.9-3.2,0-3c-5.1.5-10.2,1.1-15.4,1.6s-2.3.2-3.4.4-2.3.3-3.3-.3c-1.5-.8-1.7-2.9-1.9-4.3-1.3-9.9-1.6-19.9-1.1-29.8l-1.5,1.5c28.2-2.5,56.8-1.9,84.9,1.8s15.8,2.4,23.7,3.9l-1.1-1.4c0,10.1,0,20.2,0,30.3s0,4.1-1.8,4.9-4,.2-5.8,0l-15-2.3c-5.7-.9-11.5-1.8-17.2-2.7s-1.9.4-1.9,1.4c.7,17.6,1.3,35.2,2,52.9s1.3,35.2,2,52.9.7,19.9,1.1,29.9l1.5-1.5c-12-.3-24.1-.6-36.1-.9l1.5,1.5c-.9-18-1.9-35.9-2.8-53.9s-1.9-35.9-2.8-53.9c-.5-10.1-1.1-20.3-1.6-30.4s-3.1-1.9-3,0h0Z"/>
  </g>
  <g>
    <path d="M380.6,526.7c24.4-7.4,53.9,5.2,63.7,27.3s-1.6,50.4-24.6,61.1c24.7,26,44.7,55.9,58.8,88-15.9-.5-31.8-1.1-47.6-1.6-4.5-22.1-14.4-43.2-28.7-61.4.9,24.4,3.2,48.7,6.7,72.8-13.3-2.7-26.9-3.7-40.5-3,1-60.9-2.1-122-9.4-182.5,6.4-1.6,13.2-2.3,19.8-2.1"/>
    <path d="M381,528.2c18.2-5.5,39.4.1,52.9,13.5,6.5,6.5,10.9,14.8,12.1,23.9s-.7,18.4-4.8,26.5-12.6,17.1-22.2,21.6c-.9.4-.9,1.7-.3,2.4,19.1,20.1,35.5,42.7,48.6,67.1s6.9,13.6,10,20.6l1.3-2.3c-15.9-.5-31.8-1.1-47.6-1.6l1.4,1.1c-3.6-17.5-10.5-34.4-20.1-49.5-2.8-4.4-5.8-8.5-9-12.6s-2.6-.2-2.6,1.1c.7,19.1,2.3,38.2,4.6,57.2s1.4,10.7,2.2,16.1l1.8-1.8c-13.4-2.7-27.2-3.8-40.9-3.1l1.5,1.5c.4-23.8.2-47.6-.7-71.4-.9-23.8-2.4-47.5-4.5-71.2s-2.6-26.7-4.2-39.9l-1.1,1.4c6.4-1.6,12.9-2.3,19.4-2.1s1.9-2.9,0-3c-6.8-.2-13.6.5-20.2,2.2s-1.2.8-1.1,1.4c2.9,23.6,5.1,47.3,6.7,71.1s2.5,47.5,2.8,71.3.1,26.8,0,40.1.7,1.5,1.5,1.5c13.4-.7,26.9.3,40.1,3s2-.7,1.8-1.8c-2.7-18.7-4.7-37.5-5.9-56.4s-.6-10.7-.8-16l-2.6,1.1c10.9,13.8,19.3,29.6,24.6,46.4,1.5,4.7,2.7,9.5,3.7,14.3s.8,1.1,1.4,1.1c15.9.5,31.8,1.1,47.6,1.6s1.7-1.3,1.3-2.3c-11.2-25.3-25.8-49-43.4-70.5s-10.2-12.1-15.7-17.8l-.3,2.4c17.9-8.4,29.9-28,28.8-47.8-.5-9.8-4.3-18.9-10.7-26.3s-15.3-13-24.6-16.1c-10.8-3.6-22.7-4.1-33.6-.9s-1.1,3.5.8,2.9h0Z"/>
  </g>
  <g>
    <path class="st0" d="M398.5,556.1c2,12,4,24,6.1,36,4.3-3,8.7-6,11.9-10,3.2-4,5-9.3,3.6-14.1-2.5-8.4-13-11.9-22.2-13.8"/>
    <path d="M397.1,556.5c2,12,4,24,6.1,36s1.5,1.4,2.2.9c7.1-4.9,15.3-10.7,16.5-20.1s-4.6-13.8-11.4-16.8-8-2.9-12.2-3.8-2.7,2.5-.8,2.9c6.1,1.3,13.1,3.1,17.8,7.5s3.8,5,3.8,8.2-1.9,7.7-4.5,10.6-6.9,6.2-10.7,8.8l2.2.9c-2-12-4-24-6.1-36s-3.2-1.1-2.9.8h0Z"/>
  </g>
  <g>
    <path d="M609.7,714.2c3.1-58,6.3-115.9,9.4-173.9,30.5,6.2,61.9,7.4,92.7,3.6,2-.2,4.3-.4,5.7,1.1,1,1.1,1.2,2.8,1.2,4.3.4,11,.9,22,1.3,33,0,1.3,0,2.7-.6,3.8-1.2,2-4,2.1-6.4,2-19.3-1.3-38.6-2.5-58-3.8-.9,11.5-.8,23,.3,34.5,16.8.3,33.5.5,50.3.8,0,13.3,0,26.5,0,39.8-16.5-.4-32.9-3-48.7-7.7-.3,22-2,44.1-5.3,65.8-13.7,3.1-28.2,2.1-41.4-2.7"/>
    <path d="M611.2,714.2c1.2-22.6,2.4-45.2,3.7-67.8s2.4-45.2,3.7-67.8c.7-12.8,1.4-25.6,2.1-38.4l-1.9,1.4c26.2,5.3,53,7,79.6,5,3.4-.3,6.7-.6,10.1-1s2.9-.4,4.4-.5,2.7-.2,3.5.8.7,2.6.8,3.8c0,1.8.1,3.6.2,5.4.1,3.4.3,6.7.4,10.1s.3,6.7.4,10.1.1,3.3.2,4.9.4,3.3-.1,4.6c-1,2.3-4.8,1.6-6.7,1.5-3.4-.2-6.8-.4-10.2-.7-15.4-1-30.9-2-46.3-3s-1.4.7-1.5,1.5c-.8,11.5-.7,23,.3,34.5s.6,1.5,1.5,1.5c16.8.3,33.5.5,50.3.8l-1.5-1.5v39.8c.6-.5,1.1-1,1.6-1.5-16.4-.4-32.6-3-48.3-7.7-.9-.3-1.9.5-1.9,1.4-.2,17-1.3,34-3.3,50.9s-1.2,9.7-1.9,14.5l1-1c-13.5,3-27.6,2-40.6-2.7s-2.6,2.2-.8,2.9c13.5,4.9,28.2,5.8,42.2,2.7.5-.1,1-.6,1-1,2.5-17.1,4.2-34.2,4.9-51.4.2-4.9.3-9.9.4-14.8l-1.9,1.4c15.9,4.8,32.5,7.4,49.1,7.8s1.5-.7,1.5-1.5v-39.8c0-.8-.7-1.5-1.6-1.5-16.8-.3-33.5-.5-50.3-.8l1.5,1.5c-1-11.5-1.2-23-.3-34.5l-1.5,1.5c14.5.9,29.1,1.9,43.6,2.8s7.1.5,10.7.7,5.9.7,8.5-.2,3.7-3.6,3.7-6.4-.3-7.2-.4-10.7c-.3-7.2-.6-14.4-.8-21.7s-.2-5.9-3-7.3-5.7-.5-8.3-.2c-14.1,1.6-28.2,2.2-42.4,1.7s-31.5-2.4-47-5.5-1.8.4-1.9,1.4c-1.2,22.6-2.4,45.2-3.7,67.8s-2.4,45.2-3.7,67.8c-.7,12.8-1.4,25.6-2.1,38.4s2.9,1.9,3,0h0Z"/>
  </g>
  <g>
    <path d="M423.1,288.4c-25.2,5.8-45.3,24.6-56.6,46.4-11.3,21.8-14.9,46.3-16.3,70.4-.9,15.6-.9,31.5,3.6,46.6,10.1,33.8,48.7,60.8,85.4,52.5,21.9-4.9,39.5-21,49.8-39.7,10.3-18.7,14-39.8,16.1-60.7,2.3-23.2,2.4-47.5-8-68.7-13.1-27-43.4-45.9-75.2-47"/>
    <path d="M422.7,287c-18.4,4.3-34.6,15.5-46.4,30.1-13.2,16.3-20.5,36.2-24.1,56.6s-3,21.9-3.6,32.9-.7,23.2,1.2,34.6,4.6,18.6,9.5,26.8,10.3,14.3,16.9,20c13.4,11.5,30.6,19,48.4,19.3,18.9.3,36.7-8.2,50-21.3,14.7-14.5,23.1-33.6,27.5-53.5s3.7-21.6,4.7-32.5c.9-10.9,1.3-22,.2-32.9-1.1-10.8-3.5-21.4-8.1-31.2s-9.2-15.7-15.5-22.2c-12.9-13.1-30-22-48.1-25.4s-9-1.4-13.6-1.5-1.9,2.9,0,3c18,.7,35.7,7.1,50.1,17.9,7,5.2,13.2,11.6,18.2,18.8s9.3,17.1,11.6,26.6,3.2,20.9,3,31.5-1.2,21.1-2.6,31.6c-2.8,20.3-8.4,40.8-20.6,57.5s-26.4,26.1-44.5,29.6-34.6-1.2-49.1-10.3-26.1-22.6-31.7-38.6-4.8-21.2-5-32,.6-22,1.7-32.9c2.2-20.7,7.1-41.7,18.1-59.6s23.1-28.4,39.7-35.7c4.1-1.8,8.4-3.2,12.7-4.2s1.1-3.3-.8-2.9h0Z"/>
  </g>
  <g>
    <path d="M273,535.4c-20.9,5.1-37.5,21.4-46.9,40.3-9.4,18.9-12.3,40.2-13.5,61.2-.7,13.6-.8,27.4,3,40.5,8.4,29.4,40.3,52.9,70.7,45.7,18.1-4.3,32.7-18.3,41.2-34.5,8.5-16.3,11.6-34.7,13.3-52.8,1.9-20.2,2-41.3-6.6-59.7-10.9-23.4-36-39.9-62.3-40.9"/>
    <path d="M272.6,533.9c-15.6,3.8-28.9,13.8-38.6,26.4-11,14.2-16.9,31.5-19.9,49s-2.5,19-3,28.5c-.5,9.9-.6,19.9.9,29.8s3.7,16.3,7.8,23.7,8.5,12.6,14.1,17.7c11,10,25.3,16.7,40.3,16.9,15.9.3,30.7-7.3,41.6-18.5s19.3-29.5,22.9-46.7c2-9.3,3.1-18.8,3.9-28.2s1.1-18.9.2-28.3c-.8-9.2-2.8-18.3-6.4-26.8s-7.5-13.9-12.9-19.7c-10.6-11.4-24.9-19.5-40.2-22.6-3.8-.8-7.6-1.2-11.5-1.4s-1.9,2.9,0,3c15.1.6,29.9,6.3,41.7,15.8s10.9,10.2,15,16.5,7.6,15,9.4,23.2c3.9,17.7,2.5,36.5.1,54.4-2.3,17.4-6.8,35.1-17,49.7s-21.5,22.7-36.7,25.8-28.9-1.2-40.7-9.1c-12-8-21.5-20-26-33.7-2.9-8.9-3.9-18.4-4-27.8s.5-19,1.5-28.5c1.8-17.8,5.8-35.8,14.8-51.5,7.6-13.2,18.8-24.6,32.7-31,3.4-1.6,7-2.8,10.6-3.7s1.1-3.4-.8-2.9h0Z"/>
  </g>
  <g>
    <path d="M793,547.4c-20,4.8-36,20.5-45,38.7-9,18.1-11.8,38.6-12.9,58.7-.7,13-.7,26.3,2.9,38.8,8,28.2,38.7,50.7,67.8,43.8,17.4-4.1,31.4-17.5,39.6-33.1,8.1-15.6,11.1-33.2,12.8-50.6,1.8-19.3,1.9-39.6-6.3-57.3-10.4-22.5-34.5-38.3-59.8-39.2"/>
    <path d="M792.6,545.9c-14.9,3.7-27.7,13.2-37,25.2-10.6,13.6-16.3,30.2-19.2,47.1-1.6,9.1-2.4,18.2-2.9,27.4-.5,9.5-.5,19,.9,28.4s3.6,15.7,7.5,22.8,8.1,12,13.4,16.9c10.6,9.6,24.4,16.2,38.9,16.4,15.2.2,29.4-7,39.9-17.7,11.9-12.2,18.6-28.3,22.1-44.8s3-17.9,3.7-26.9,1.1-18,.3-27c-.8-8.9-2.6-17.8-6.2-26.1s-7.2-13.4-12.4-19c-10.2-11-24-18.8-38.7-21.7s-7.3-1.2-10.9-1.3-1.9,2.9,0,3c14.5.6,28.6,6,39.9,15.1s10.5,9.8,14.4,15.8,7.3,14.4,9,22.3c3.7,17,2.4,35,.1,52s-6.5,33.6-16.3,47.6-20.7,21.7-35.2,24.7-27.6-1.1-39-8.7c-11.5-7.7-20.8-19.3-25-32.5s-3.6-17.6-3.7-26.6c0-9,.5-18,1.4-27,1.8-17.1,5.6-34.4,14.3-49.4,7.3-12.6,18.1-23.6,31.4-29.7s6.6-2.6,10.1-3.5,1.1-3.4-.8-2.9h0Z"/>
  </g>
  <g>
    <path d="M885.7,547.3c-1.7,53.6-5.6,107.1-11.7,160.4-.2,1.9-.3,4.1,1.2,5.3,1.1.9,2.7.9,4.2,1,25.7.1,51.3.3,77,.4,1-10.7,1.9-21.4,2.9-32.1.2-2.1.2-4.7-1.8-5.9-1-.6-2.3-.6-3.5-.6-9.7,0-19.5,0-29.2.1-2.7,0-5.7-.2-7.3-2.1-1.3-1.7-1.1-4-.8-6,5.9-40.2,7.7-81,5.3-121.5-12.4.5-24.8,1-37.2,1.5"/>
    <path d="M884.2,547.3c-.5,16.6-1.3,33.2-2.2,49.8s-2.1,33-3.5,49.5c-1.4,16.6-3,33.2-4.8,49.7-.4,4-1,8-1.3,12s.8,6,4,6.8,3.5.3,5.2.3,4.1,0,6.2,0c4.1,0,8.3,0,12.4,0,16.6,0,33.3.2,49.9.3,2.1,0,4.1,0,6.2,0s1.4-.7,1.5-1.5c.6-7.1,1.3-14.2,1.9-21.3s.7-7.3,1-10.9,0-4.9-1.7-6.5-6.1-1.4-8.8-1.4-7.1,0-10.6,0-7.1,0-10.6,0-6.2.5-8.9-.5-2.2-4.3-1.8-6.7c.5-3.5,1-7.1,1.5-10.6.9-7,1.7-14,2.3-21,1.3-13.9,2.1-27.9,2.4-41.9s0-31.6-.9-47.4c0-.8-.6-1.5-1.5-1.5-12.4.5-24.8,1-37.2,1.5s-1.9,3.1,0,3c12.4-.5,24.8-1,37.2-1.5l-1.5-1.5c1.7,28.1,1.3,56.3-1,84.4-.6,7-1.3,14-2.1,21s-.9,6.9-1.3,10.3-1.4,6.4-1,9.5c.8,6.6,8.5,6,13.5,5.9,7.1,0,14.2,0,21.3,0s3.8-.2,5.6,0,2.2,1,2.4,2.5,0,3.2-.2,4.7l-.5,5.9c-.7,8-1.4,16-2.1,24l1.5-1.5c-16.2,0-32.5-.2-48.7-.2s-16.2,0-24.3-.1-3.7.1-5.5,0-2.5-1-2.5-2.6.2-3,.4-4.5c.2-2.1.5-4.3.7-6.4,3.5-32.3,6.3-64.6,8.2-97,1.1-18.2,1.9-36.4,2.5-54.6,0-1.9-2.9-1.9-3,0h0Z"/>
  </g>
  <g>
    <path d="M994.1,550.2c-2.8,53.2-5.7,106.3-8.5,159.5,13.7,0,27.3.2,41,.2,1.6,0,3.3,0,4.7-.6,2.7-1.1,2.8-3.8,2.7-5.9-3.3-52.7-1.1-105.7,6.7-158.2-15.6.2-31.2.3-46.9.5,0,2.2-.1,4.5-.2,6.7"/>
    <path d="M992.6,550.2c-1.1,20.8-2.2,41.5-3.3,62.3s-2.2,41.4-3.3,62.1c-.6,11.7-1.3,23.4-1.9,35.1s.7,1.5,1.5,1.5h21.5c3.5.1,7.1.2,10.6.2s7.1.2,10.7,0,5.3-.9,6.5-3.5.6-5.4.5-8c-.4-7.1-.7-14.1-.9-21.2-.8-28.5,0-57,2.3-85.3,1.3-16,3.2-31.9,5.5-47.8s-.4-1.9-1.4-1.9c-15.6.2-31.2.3-46.9.5s-1.5.7-1.5,1.5c0,2.2-.1,4.5-.2,6.7s3,1.9,3,0,.1-4.5.2-6.7l-1.5,1.5c15.6-.2,31.2-.3,46.9-.5l-1.4-1.9c-4.1,27.5-6.7,55.3-7.7,83.1s-.7,27.8-.4,41.7c.1,7,.3,14,.7,21s.3,6.9.5,10.4.9,5.2-.9,6.6-3.3.9-4.8.9-4,0-5.9,0h-11.4c-7.9-.1-15.8-.2-23.7-.2l1.5,1.5c1.1-20.8,2.2-41.5,3.3-62.3,1.1-20.7,2.2-41.4,3.3-62.1.6-11.7,1.3-23.4,1.9-35.1s-2.9-1.9-3,0h0Z"/>
  </g>
  <g>
    <path d="M1120.5,537c-20,4.8-36,20.5-45,38.7-9,18.1-11.8,38.6-12.9,58.7-.7,13-.7,26.3,2.9,38.8,8,28.2,38.7,50.7,67.8,43.8,17.4-4.1,31.4-17.5,39.6-33.1,8.1-15.6,11.1-33.2,12.8-50.6,1.8-19.3,1.9-39.6-6.3-57.3-10.4-22.5-34.5-38.3-59.8-39.2"/>
    <path d="M1120.1,535.6c-14.9,3.7-27.7,13.2-37,25.2-10.6,13.6-16.3,30.2-19.2,47.1-1.6,9.1-2.4,18.2-2.9,27.4s-.5,19,.9,28.4c1.2,8,3.6,15.7,7.5,22.8,3.5,6.3,8.1,12,13.4,16.9,10.6,9.6,24.4,16.2,38.9,16.4s29.4-7,39.9-17.7,18.6-28.3,22.1-44.8,3-17.9,3.7-26.9,1.1-18,.3-27c-.8-8.9-2.6-17.8-6.2-26.1-3-7-7.2-13.4-12.4-19-10.2-11-24-18.8-38.7-21.7s-7.3-1.2-10.9-1.3-1.9,2.9,0,3c14.5.6,28.6,6,39.9,15.1,5.6,4.5,10.5,9.8,14.4,15.8s7.3,14.4,9,22.3c3.7,17,2.4,35,.1,52-2.2,16.7-6.5,33.6-16.3,47.6-8.3,12-20.7,21.7-35.2,24.7s-27.6-1.1-39-8.7c-11.5-7.7-20.8-19.3-25-32.5s-3.6-17.6-3.7-26.6.5-18,1.4-27c1.8-17.1,5.6-34.4,14.3-49.4,7.3-12.6,18.1-23.6,31.4-29.7,3.2-1.5,6.6-2.6,10.1-3.5s1.1-3.4-.8-2.9h0Z"/>
  </g>
  <g>
    <path d="M1086.4,408.5c10.7,0,21.5,0,32.2-.1,3.7-13-2.3-27.2-14.1-36.3s-29-13.2-45.2-11.7c-16.5,1.6-32.3,9-41,20.5s-9.5,27-.8,38.5c7.4,9.7,20.2,15.7,32.7,20.7,8.8,3.5,18.1,6.9,24.6,13,6.5,6,9.3,15.5,3.6,22.1-5.2,6-16,7.4-24.3,4.6-8.3-2.8-14.2-9-17.9-15.7-11.2,1.3-22.3,2.7-33.5,4,2.2,17.3,6.6,37.5,25.7,45.4,7.9,3.3,17,3.7,25.8,3.6,20.6-.3,43.3-4.6,54.7-18.6,9.1-11.1,8.6-25.6,7.5-38.9-.5-5.4-1-11-3.9-15.8-4.3-7.3-13.2-12-22.1-15.5-8.9-3.5-18.5-6.2-26.4-11.1s-13.9-12.8-12.3-20.8c1.7-8,13.7-14.1,22.1-9.9,8.6,4.4,7.6,14.8,12.4,22.1"/>
    <path d="M1086.4,410c10.7,0,21.5,0,32.2-.1s1.3-.5,1.4-1.1c2.7-9.7.3-19.9-5.3-28.1-6.1-8.9-15.4-14.9-25.5-18.4-20.4-7-45.3-4.5-62.9,8.5-8.4,6.3-14.8,15.1-16.2,25.6-1.4,10.6,2.4,20.8,10.1,28.2s18.3,12.3,28.5,16.4,10.9,4.2,16.1,6.9,9.4,5.5,12.4,10,4,8.8,2.2,13.2-6.2,6.8-10.6,7.8c-10.1,2.4-20.3-1.9-27-9.7s-2.9-3.9-4.1-6-.8-.8-1.3-.7c-11.2,1.3-22.3,2.7-33.5,4s-1.6.6-1.5,1.5c1.2,9.5,2.9,19,7.1,27.7,4.4,9.2,11.7,16.3,21.4,19.7s12.7,2.9,19.2,3,11.9,0,17.8-.7c10.9-1.1,22.1-3.4,31.7-8.9s8.4-5.6,11.6-9.5,6.1-9.9,7.3-15.6,1.3-11.5,1.1-17.3-.5-12.3-2.2-18.1c-3.5-11.8-15.1-17.8-25.8-21.9s-25-7.5-33.2-17.4-5.5-9.3-3.5-14.2,6-6.9,10.2-8,9.5-.2,12.8,3.4,3.9,8.2,5.4,12.4,1.7,4.4,3,6.4,3.6.1,2.6-1.5c-2.6-3.9-3.4-8.6-5.1-12.9s-4.5-8.4-9.1-10.2c-8.4-3.4-20.5,1.8-23,10.8s.4,10.4,3.4,14.5c3.6,4.9,8.6,8.4,13.9,11.1,11.3,5.6,24,8,34.6,15s9,7.4,10.8,13.1,2,11.9,2.2,17.7c.5,11.4-.7,23.5-8.8,32.3-7.2,7.8-17.5,11.7-27.6,14s-23.5,3.2-35.1,2.3c-6.2-.5-12.4-1.7-18-4.7s-8-5.5-10.9-9.4c-5.7-7.7-8.2-17.1-9.8-26.4s-.7-4.5-1-6.7l-1.5,1.5c11.2-1.3,22.3-2.7,33.5-4l-1.3-.7c5,8.9,13.4,16,23.7,17.5s20.5-1.5,23.7-11,.4-9.4-1.8-13.5-6.6-8-11.1-10.6c-9.7-5.9-21-8.9-31.2-14-9.4-4.7-19.1-11-23.3-21.1s-2.2-20.9,3.7-29.4c5.8-8.4,15.2-14.1,24.7-17.4s22-4.7,33-3c10.6,1.6,21.2,5.5,29.3,12.7s12.6,15.9,12.5,26-.4,4.7-1,7l1.4-1.1c-10.7,0-21.5,0-32.2.1s-1.9,3,0,3h0Z"/>
  </g>
  <g>
    <path d="M980.8,302.4c-4,12.9-8.1,25.7-12.1,38.6-2.3,7.4-2,18.6,6.3,19.1,5.4.3,9-4.9,11.3-9.5,7.8-15.6,14.4-31.7,19.9-48.2-8.8,0-17.7-.1-26.5-.2"/>
    <path d="M979.4,302c-3.2,10.3-6.5,20.6-9.7,31-2.2,6.9-5.3,14.5-2.9,21.9s2.7,5.2,5.5,6.2,7.1.1,9.8-2.2,4.9-6.4,6.6-9.9,4.4-9.3,6.5-14c4.6-10.5,8.7-21.3,12.3-32.2s-.5-1.9-1.4-1.9c-8.8,0-17.7-.1-26.5-.2s-1.9,3,0,3c8.8,0,17.7.1,26.5.2l-1.4-1.9c-3,9.1-6.3,18-10,26.8s-3.8,8.7-5.8,13-3.5,7.8-5.8,11.4-4.4,5.4-7.9,5.3-4.4-1.7-5.3-4c-2.4-6.4.4-13.3,2.3-19.3,3.4-10.8,6.8-21.6,10.2-32.4s-2.3-2.6-2.9-.8h0Z"/>
  </g>
  <g>
    <path class="st0" d="M424.9,350c-23.4,19.5-31.4,53.4-19,80.2,4.4,9.4,13.2,18.9,24.1,17.7,8.9-.9,15.1-8.6,18.6-16.3,6-13.2,7-27.9,7.2-42.3.1-9.6-.2-19.8-5.2-28.2-5.1-8.4-16.4-14.3-26-10.7"/>
    <path d="M423.8,348.9c-12.2,10.2-20.6,24.6-23.8,40.1-3.1,15.1-1.5,32.2,6.5,45.6s10.4,13.3,18.5,14.6,15.8-3.2,20.7-9.8,8.2-16.8,9.7-25.7,2-19.6,1.9-29.4c-.1-9-1.3-18.8-7-26.2s-12.5-10.6-20.5-10.3-3.9.5-5.8,1.1-1,3.6.8,2.9c7.1-2.6,14.9,0,20.3,5.1s8.4,14.4,8.9,22.7.2,9,0,13.5-.4,9.3-.9,14c-1,8.9-3,18.1-7.2,26s-9.2,12.8-17,13.3-14.3-4.8-18.5-10.8-6.8-13.3-8.1-20.5-1.5-14.4-.4-21.5c2.2-14.6,9-28.4,19.5-38.8s2.8-2.6,4.2-3.8-.6-3.4-2.1-2.1h0Z"/>
  </g>
  <g>
    <path class="st0" d="M274.4,587.5c-19.4,17-26,46.4-15.7,69.8,3.6,8.2,10.9,16.4,20,15.4,7.3-.8,12.5-7.5,15.4-14.1,5-11.5,5.8-24.3,6-36.8.1-8.4-.1-17.2-4.3-24.5-4.2-7.3-13.6-12.5-21.6-9.3"/>
    <path d="M273.4,586.4c-10.3,9.1-17.2,21.7-19.8,35.1s-1.2,28,5.5,39.8,8.7,11.6,15.6,12.7c7.3,1.2,13.5-3.1,17.5-8.9s6.7-14.7,7.9-22.4,1.6-17,1.5-25.5-1-16.1-5.7-22.5c-3.9-5.4-10.5-9.5-17.3-9.2s-3.3.4-4.8,1-1,3.6.8,2.9c5.9-2.3,12.4.2,16.7,4.5,5.2,5.1,6.7,12.6,7.1,19.6s.1,15.7-.6,23.3-2.4,15.6-5.8,22.5-7.3,11.3-13.9,11.8-11.9-4.4-15.3-9.5-5.5-11.5-6.6-17.7-1.2-12.5-.3-18.7c1.8-12.5,7.3-24.4,16.1-33.5s2.2-2.2,3.4-3.3-.7-3.4-2.1-2.1h0Z"/>
  </g>
  <g>
    <path class="st0" d="M794.4,598.7c-18.6,16.3-25,44.5-15.1,66.9,3.5,7.8,10.5,15.7,19.1,14.8,7.1-.8,12-7.2,14.8-13.6,4.8-11,5.6-23.3,5.8-35.3.1-8-.1-16.5-4.2-23.5-4-7-13.1-11.9-20.7-8.9"/>
    <path d="M793.4,597.6c-9.9,8.7-16.5,20.8-19,33.7s-1.1,26.9,5.4,38.2c3.2,5.6,8.4,11.1,15.2,12.1s12.7-3,16.5-8.4c4.5-6.3,6.6-14.3,7.7-21.8,1.3-8,1.6-16.3,1.4-24.4s-1-15.4-5.5-21.6-10-9.1-16.6-8.8-3.2.4-4.6,1-1,3.6.8,2.9c5.7-2.2,11.8.2,16,4.3s6.5,12.1,6.9,18.8.1,14.9-.6,22.3-2.3,15.1-5.6,21.8-6.9,10.7-13.1,11.2-11.5-4.1-14.7-9c-6.6-9.9-8.3-23.2-6.6-34.8s7-23.4,15.4-32.1,2.2-2.1,3.3-3.1-.7-3.4-2.1-2.1h0Z"/>
  </g>
  <g>
    <path class="st0" d="M1121.9,588.3c-18.6,16.3-25,44.5-15.1,66.9,3.5,7.8,10.5,15.7,19.1,14.8,7.1-.8,12-7.2,14.8-13.6,4.8-11,5.6-23.3,5.8-35.3.1-8-.1-16.5-4.2-23.5-4-7-13.1-11.9-20.7-8.9"/>
    <path d="M1120.8,587.3c-9.9,8.7-16.5,20.8-19,33.7-2.4,12.6-1.1,26.9,5.4,38.2s8.4,11.1,15.2,12.1,12.7-3,16.5-8.4c4.5-6.3,6.6-14.3,7.7-21.8,1.3-8,1.6-16.3,1.4-24.4s-1-15.4-5.5-21.6-10-9.1-16.6-8.8-3.2.4-4.6,1-1,3.6.8,2.9c5.7-2.2,11.8.2,16,4.3s6.5,12.1,6.9,18.8c.4,7.4.1,14.9-.6,22.3s-2.3,15.1-5.6,21.8-6.9,10.7-13.1,11.2-11.5-4.1-14.7-9c-6.6-9.9-8.3-23.2-6.6-34.8,1.7-11.9,7-23.4,15.4-32.1s2.2-2.1,3.3-3.1-.7-3.4-2.1-2.1h0Z"/>
  </g>
</svg>