<?xml version="1.0" encoding="UTF-8"?>
<svg id="Lag_1" xmlns="http://www.w3.org/2000/svg" version="1.1" viewBox="0 0 1280 1024">
  <!-- Generator: Adobe Illustrator 30.1.0, SVG Export Plug-In . SVG Version: 2.1.1 Build 136)  -->
  <defs>
    <style>
      .st0 {
        fill: #ffdbe8;
      }

      .st1 {
        fill: #ed9bbd;
      }
    </style>
  </defs>
  <g>
    <path class="st1" d="M676,580.1c2-29.4-11.8-57.7-27.7-83.4-15.9-25.7-34.4-50.6-43.2-78.9-5-16.1-6.6-34.1,2-49.1,7.1-12.4,21-21.5,36.3-23.7,15.3-2.3,31.7,2.4,42.8,12.1,8.7,7.6,13.9,17.8,18.3,28.1,18.9,44.9,23,93.7,23.2,141.7,0,8.2,0,16.6,3.1,24.3,3.1,7.7,10.1,14.7,19.2,15.9,8.3,1.1,16.3-2.8,23.3-7,41.9-25.3,71.2-66.1,116.6-86.1,23.7-10.5,54.5-13.7,74.7,1.4,22.5,16.9,21.3,50.4,3.8,71.5-17.5,21.2-46.6,32.1-75.2,38.2-28.6,6.1-58.3,8.5-86,17.4-6.8,2.2-13.8,4.9-18.6,9.8-10.6,10.6-7.4,27.8,1.8,39.5,9.1,11.6,22.8,19.6,34.3,29.3,19.1,16,32.5,37.2,39.3,59.8,4,13.4,5.5,28.6-3.1,40.2-12.2,16.6-40.8,17.7-59.5,7.1-18.7-10.7-29.2-29.6-36.7-48.2-7.5-18.7-12.9-38.3-25.1-54.9-2.7-3.6-6.4-7.4-11.2-7.3-5.2.1-8.8,4.6-11.3,8.6-14,22.1-23.4,46.3-37.7,68.2s-35.2,42.1-62.6,48.6c-27.4,6.6-61.2-5.2-69.2-29.5-5.4-16.5,2-34.7,14.3-47.9,12.3-13.2,29.1-22.5,45.5-31.5,19.1-10.4,38.1-20.9,57.2-31.3,4.9-2.7,10.4-6.3,10.2-11.4-.2-6.8-9.8-9.6-17.4-10.4-42.9-4.3-87.1-4.1-127.7-17.1-40.6-13-78.2-43.6-80.2-82.2-.3-5,.1-10.1,2.1-14.7,4-9.4,14-15.7,24.1-20.2,19.2-8.5,41.9-12.3,62.2-6.1,19.8,6,34.6,20.3,49.8,33.1,22,18.6,46.4,34.9,72.6,48.5,3.4,1.8,7.3,3.6,11.2,2.7,3.9-.9,6.4-5.9,3.2-8.1"/>
    <path class="st1" d="M677.5,580.1c1.5-22.1-5.9-43.5-15.8-62.9-10.2-19.9-23.3-38.1-34.9-57.2-5.7-9.3-11-18.9-15.3-29s-7.6-20.2-8.7-30.8.1-21.1,5.3-30.3,11.8-14.4,20-18.5c17.5-8.7,40.1-6.7,55.5,5.6s13.5,15.6,17.8,25c4.6,10.3,8.4,21,11.5,31.8,6.3,21.9,9.7,44.5,11.5,67.2s1.4,22.6,1.6,33.9,0,11.3.2,16.9c0,5.7.5,11.4,2.1,16.9,2.7,8.8,9.3,16.6,18.3,19.1,10.6,3,21-2.6,29.8-8.1,16.8-10.5,31.7-23.5,46.6-36.5,14.8-12.9,29.5-26,46.1-36.6,16.4-10.4,34.6-18.5,54.2-20,17.6-1.4,37.2,2.8,48.3,17.7,9.8,13.1,10.3,30.8,4.7,45.8-6.6,17.3-21.8,29.7-37.9,38s-39.1,14.4-59.6,18.1c-23,4.1-46.3,6.9-68.7,13.6-9.5,2.9-20.1,6.4-25.8,15.2s-4.8,16.9-2,25.1c6.7,19.5,26.7,29.6,41.5,42.2s27.7,30.1,35.2,49.1c6.6,16.8,11.9,40-4,53.5-6,5.1-13.9,7.6-21.6,8.4-8.3.8-16.9-.4-24.7-3.3-17.8-6.7-29.9-23.1-37.9-39.7-9.2-18.9-14-39.8-24.7-58s-11.6-19.7-21.9-15.2c-4.4,1.9-7.1,6.1-9.5,10s-5.8,9.7-8.5,14.7c-10.5,19.5-19.4,40.1-32.5,58.1-11.1,15.3-25.4,28.8-42.7,36.7-8.3,3.8-17.2,6.2-26.4,6.7s-16.8-.7-24.8-3.2c-15-4.8-29.2-15.5-32.1-31.9-1.7-9.6.9-19.6,5.5-28.1s12.2-16.7,20.3-23.1,17.6-12.1,27-17.3,21-11.5,31.4-17.2c10.8-5.9,21.7-11.9,32.5-17.8s8.2-4.5,10.6-8.4,1.5-7.7-1.2-10.6-6.8-4.3-10.5-5.1-10.1-1.4-15.2-1.8c-11.5-1-23.1-1.8-34.6-2.6-23.1-1.7-46.2-3.9-68.7-9.4-19.3-4.7-37.8-12.1-54.2-23.5-14.4-10-27.2-23.2-34.3-39.4s-5.4-16.6-5.3-25.2,1.2-10.5,4.2-15,6.3-7,10.3-9.6c8.8-5.8,19-9.6,29.2-12s21.5-3.5,32.2-2.1,20.2,5.3,29.1,10.9,16.5,12,24.2,18.6c16.8,14.4,34.4,27.7,53.2,39.4,4.6,2.8,9.2,5.6,13.9,8.2s9.4,5.4,14.3,7.7,9.7,3.6,13.6.1,3.5-6.7.3-9.1-3,1.4-1.5,2.6.5,2.7-.3,3.7c-1.5,1.9-4,2-6.2,1.6s-5.3-2-7.8-3.3-5-2.7-7.5-4c-10-5.5-19.7-11.4-29.2-17.7-9.4-6.3-18.5-13-27.3-20-8.2-6.6-15.9-13.6-24.1-20.2s-16.4-12.3-25.9-16.3-20.5-6-31.2-5.7-21.9,2.6-32.1,6.3-18.9,7.8-25.9,14.9-6.2,7.8-7.4,12.6-1.2,10.3-.7,15.4c.9,8.5,3.6,16.7,7.5,24.2,8.3,16,22,28.8,37,38.5,17,11,36.1,18,55.9,22.3,22.7,5,45.9,7,69,8.7,11.7.9,23.4,1.7,35.1,2.8s9.4.8,13.8,2.5,6.7,3.2,6.8,6.9-4.7,7.4-8,9.3c-5.2,3-10.6,5.8-15.9,8.7-10.9,6-21.8,12-32.7,17.9s-20.1,10.8-29.7,16.7c-9.1,5.6-17.8,11.8-25.2,19.5-13.3,13.8-22.4,34.6-14.4,53.4,6.4,14.9,21.8,23.8,37,27.4,8.3,2,17,2.5,25.5,1.4,9.4-1.2,18.4-4.3,26.8-8.6,17-8.9,30.9-23,41.8-38.6,12.9-18.6,21.7-39.5,32.7-59.1,2.7-4.8,5.4-9.7,8.6-14.2s6.3-7.1,11.1-5.8,7.9,6.4,10.5,10.3,5.5,9.2,7.8,14.1c8.8,18.7,13.7,39.2,24.3,57.1,9.4,16,23.5,29.8,42.1,34.1,15.4,3.5,34.6,1.3,45.4-11.3,13.5-15.8,7.4-38.8.1-56s-20.5-35.8-36.3-48.8c-8.2-6.7-17-12.5-24.9-19.6s-13.2-14-15.3-23.6,0-17.8,6.9-23.8,8.8-5.4,13.6-7.1,11-3.4,16.6-4.8c22.9-5.7,46.4-8.2,69.4-12.9,19.8-4.1,39.7-10,57.1-20.7s15.7-11.2,21.8-18.6c5.3-6.5,9.3-14.2,11.4-22.4,4.2-15.7,1.6-33.4-9.6-45.7-12.6-13.9-32.6-17.5-50.5-15.6-19.7,2-37.9,10.2-54.4,20.8-16.6,10.7-31.5,23.9-46.3,36.9s-30,26.2-47.1,36.5-19.6,10.4-29.7,5.2-7.3-5.4-9.6-9.3-3.9-9.9-4.4-15.2-.3-11.4-.4-17.2-.2-11.3-.3-17c-.4-11.5-1.1-22.9-2.2-34.3-2.3-22.8-6.5-45.4-13.6-67.2-3.4-10.4-7.3-20.9-12.6-30.5s-11.6-17-20.5-22.2c-17.1-10.1-39.3-10.2-56.4,0s-14.9,11.6-18.9,20.1c-4.6,9.5-5.6,20.2-4.4,30.6s4.6,21,8.8,30.9,9.7,19.9,15.4,29.4c11.6,19.2,24.9,37.6,35.1,57.6s16.6,39.6,15.2,60.9,2.9,1.9,3,0h0Z"/>
  </g>
  <g>
    <path class="st0" d="M706.9,574.1c-3.2-38-30.7-69.2-45.9-104.2-7.3-16.8-11.8-35.8-7.1-53.5.7-2.7,1.8-5.6,4-7.4,4.2-3.5,10.9-2,14.8,1.8s5.5,9.2,7.1,14.4c12.4,41.3,24.8,82.5,37.4,123.8,2.4,7.9,4.9,16,10.2,22.5,10.6,13.1,30.3,16.2,46.8,11.9,16.5-4.3,30.5-14.7,44.2-24.8,18.6-13.8,37.3-27.7,55.9-41.5,6.1-4.5,12.5-9.2,20-10.8s16.4.7,20,7.4c3.7,6.8.7,15.2-3.8,21.5-9.2,12.9-23.9,21-38.4,27.6-27,12.3-55.5,21.3-82,34.5-11.1,5.5-22.9,13-26,24.9-4.3,16.3,9.3,31.3,20.5,44.1,15.5,17.6,28.2,37.6,37.6,58.9,2.6,5.8,4.9,12.1,4.2,18.4s-5.6,12.6-12,12.9c-7.5.4-12.9-6.7-16.8-12.9-11-17.4-21.9-34.8-32.9-52.2-5.4-8.5-10.9-17.2-18.7-23.5s-18.7-10-28.4-7c-8.6,2.7-14.8,10-20.5,16.9-12.8,15.4-25.9,30.7-39.3,45.6-9.2,10.4-19,20.9-31.8,26.6-5.9,2.6-12.5,4.1-18.8,2.8s-12.1-5.9-13.4-12.1c-1.8-8.3,4.6-16.2,11.2-21.7,24.4-20.4,57.9-29.6,78.3-53.8,6.8-8,11.6-20.3,4.9-28.4-4.1-4.9-11-6.3-17.3-7.2-26.9-4-54.2-5.7-80.7-11.9-23-5.3-47.6-16.1-56.4-37.7-2-4.9-3-10.8,0-15.2,4.6-7,15.3-6,23.5-3.5,28.7,8.8,54.5,24.9,82.7,35.1,12.8,4.6,26.7,8,40,4.9,13.3-3.1,25.3-14.7,24.7-28"/>
    <path class="st0" d="M708.4,574.1c-1.2-13.8-5.5-26.9-11.3-39.5s-13.2-25-20.2-37.3c-7.1-12.6-14.2-25.4-18.7-39.1s-4.2-15-4.6-22.8-.1-7.7.4-11.6,1.1-7.4,2.6-10.6,3.8-4.8,7.1-4.8,5.9,1.3,8,3.4,4.1,5.8,5.2,9,2.3,7.5,3.5,11.3c4.9,16.4,9.8,32.7,14.8,49.1,4.9,16.3,9.9,32.7,14.9,49,2.4,7.9,4.7,15.9,7.3,23.7,2.2,6.9,5,13.8,9.9,19.4,8.2,9.4,21,13.3,33.2,13.2,14.2,0,27.4-5.8,39.3-13.2s12.4-8.4,18.5-12.9,13.7-10.2,20.6-15.3,13.7-10.2,20.6-15.3,13.2-10,20-14.8,12.1-7.9,19.3-8,11.9,2.1,14.6,7.5,0,13.8-3.6,19.1-9.2,10.6-14.9,14.6c-12,8.6-26.1,14.4-39.7,20-14.9,6.1-30.1,11.7-45,18s-14.6,6.4-21.7,10-11.5,6.3-16.3,10.6-8.3,9.5-9.7,15.6-.2,13,2.5,19c2.8,6.4,7.1,12,11.6,17.4s9.6,11,14.2,16.7c9.4,11.9,17.7,24.7,24.6,38.2s3.4,6.8,5,10.3,3.3,7.4,4.2,11.4c1.5,6.4.5,14-5.5,17.8s-5.5,2-8.3,1-5.3-3.1-7.3-5.4-4-5.5-5.9-8.4-4.5-7.2-6.8-10.7c-9-14.3-17.9-28.6-27-42.8s-16.9-24.1-31.4-27.9-13.7-1.2-19.8,2-10.8,8.4-15.1,13.5c-10.7,12.7-21.4,25.5-32.3,37.9-5.2,5.9-10.4,11.9-15.8,17.6s-10.2,10.1-16.3,14-13.4,7.4-21,7.4-13.2-3-16-9,.8-13.4,5.2-18.2,10.2-9,15.8-12.7c11.2-7.4,23.2-13.4,34.7-20.2s22.3-14,31.1-23.8c4.3-4.8,8.1-10.5,9.5-16.9s.2-12.6-4.6-16.9-12.3-5.4-18.9-6.4-16.5-2.2-24.7-3.2c-16.6-2-33.2-3.9-49.5-7.4s-25.1-6.5-36.3-13-20-14.9-23.8-26.5-1.6-6.7-.6-9.9,3-4.8,5.6-5.9c5.3-2.1,11.7-.9,17,.7,14.9,4.5,29.1,11.1,43.1,17.7,14.1,6.7,28.3,13.6,43.1,18.6,14,4.7,30.2,7.8,44.2,1.4,10.5-4.8,19.6-15.1,19.1-27.2s-3.1-1.9-3,0c.4,12.7-10.5,22.9-22,26.2-15.3,4.4-31.8-.9-46.1-6.5s-28.9-12.9-43.3-19.5-14.3-6.4-21.6-9.2-13.4-5.1-20.4-6c-5.5-.7-11.9-.1-15.9,4.2s-3.6,12.9-1,18.9c4.9,11.4,14.3,20,24.9,26,11.5,6.5,24.3,10.3,37.2,13,16.4,3.5,33.2,5.4,49.8,7.4,8.5,1,16.9,2,25.4,3.3s13.7,2,17.6,7.5,2.4,12.2-.2,17.7-7.5,11-12.4,15.5c-9.8,9-21.4,15.7-33,22.2-11.8,6.6-23.8,12.9-34.5,21.2s-11,9-13.9,15.4-2,13.2,2.9,18.1c10.9,11.2,28.4,5.1,39.4-2.5s11.3-9.2,16.4-14.5,10.7-11.8,15.9-17.7c11-12.6,21.7-25.5,32.5-38.2s9.4-10.4,15.8-12.8c6.6-2.5,13.8-1.6,20.2,1.2,13.9,6.3,21.7,20.4,29.5,32.7,9.2,14.7,18.5,29.3,27.7,44,3.5,5.6,7,11.8,12.8,15.3s12.2,2.3,16.5-2.4,5.5-12.8,3.7-19.6-2.6-7.6-4.3-11.2-3.2-6.9-5-10.3c-7-13.7-15.4-26.6-24.9-38.7-4.6-5.8-9.6-11.2-14.3-16.9s-8.8-11.1-11.5-17.6-3.2-12.9-.8-19.2,6.9-10.5,11.9-14.2,11.9-7.1,18.1-10.1,15.1-6.8,22.7-9.9c15.1-6.1,30.4-11.8,45.4-18.2,13.3-5.7,26.9-11.9,38-21.5s10-10,12.8-16.3c2.7-6.2,3.4-13.6-1-19.1s-10.1-6.7-15.9-6.5-13.8,3.8-19.6,7.8-13.5,10-20.3,15c-6.9,5.1-13.8,10.3-20.8,15.4s-13.8,10.2-20.7,15.4c-6.1,4.6-12.3,9.1-18.8,13.1-11.9,7.4-25.3,13.1-39.6,12.7-12.6-.3-25.4-5.4-32.3-16.4-4-6.4-6.1-13.8-8.3-21s-5.1-16.6-7.6-25c-5-16.5-10-33-15-49.5-5-16.4-9.7-32.9-14.8-49.2s-5-13.1-11.5-15.8-6-1.6-8.9-.6-5.4,3.7-6.6,6.8-2.1,7.2-2.5,10.8-.6,7.7-.4,11.6c.4,7.8,2,15.5,4.4,23,4.5,14,11.6,27.1,18.8,39.8s14.5,24.7,20.5,37.6,10,25.1,11.1,38.5,3.2,1.9,3,0h0Z"/>
  </g>
</svg>